G04*
G04 #@! TF.GenerationSoftware,Altium Limited,Altium Designer,18.1.7 (191)*
G04*
G04 Layer_Physical_Order=1*
G04 Layer_Color=255*
%FSAX25Y25*%
%MOIN*%
G70*
G01*
G75*
%ADD10C,0.00787*%
%ADD13C,0.01181*%
%ADD14C,0.03937*%
%ADD15R,0.15748X0.65354*%
%ADD16R,0.94882X0.15748*%
G36*
X0437008Y0361147D02*
Y0361296D01*
X0427166Y0315871D01*
X0427052D01*
X0424913Y0306311D01*
X0424436Y0306125D01*
X0423228Y0300517D01*
X0419487Y0281914D01*
X0419095Y0282307D01*
Y0284375D01*
X0418405Y0285064D01*
Y0286688D01*
X0417913Y0287180D01*
Y0288214D01*
X0416634Y0289493D01*
Y0290084D01*
X0412500Y0294218D01*
X0412008D01*
X0410728Y0295497D01*
X0409646D01*
X0408661Y0296481D01*
X0406988D01*
X0406428Y0297041D01*
X0401182D01*
X0400000Y0296580D01*
X0395318Y0317840D01*
X0395409D01*
X0385433Y0363115D01*
X0401575D01*
X0411551Y0317840D01*
X0411844D01*
X0421654Y0363115D01*
X0437008Y0363115D01*
Y0378076D01*
X0440945D01*
X0437008Y0361147D01*
D02*
G37*
G36*
X0379426Y0297208D02*
X0379093Y0296875D01*
X0376083D01*
X0375689Y0296481D01*
X0375174D01*
X0374781Y0296088D01*
X0374016D01*
X0373524Y0295596D01*
X0372835D01*
X0371949Y0294710D01*
X0371358D01*
X0367421Y0290773D01*
Y0290267D01*
X0366142Y0288988D01*
Y0288410D01*
X0365354Y0287623D01*
Y0286737D01*
X0364703Y0286086D01*
Y0284805D01*
X0364408D01*
Y0297504D01*
X0364567Y0297662D01*
X0379426Y0297958D01*
Y0297208D01*
D02*
G37*
D10*
X0419290Y0281521D02*
G03*
X0400262Y0297115I-0016731J-0001009D01*
G01*
X0379426Y0297208D02*
G03*
X0364703Y0284805I0001480J-0016696D01*
G01*
X0419487Y0281914D02*
X0424606Y0306914D01*
X0364408Y0284805D02*
X0364567Y0297662D01*
D13*
X0368110Y0279528D02*
G03*
X0391757Y0249744I0054134J0018701D01*
G01*
X0391708D02*
G03*
X0415354Y0279528I-0030487J0048484D01*
G01*
D02*
G03*
X0403543Y0293307I-0012795J0000984D01*
G01*
D02*
G03*
X0391757Y0282283I-0000381J-0011405D01*
G01*
D02*
G03*
X0379921Y0293307I-0011430J-0000406D01*
G01*
Y0293307D02*
G03*
X0368110Y0279528I0000984J-0012795D01*
G01*
X0401356Y0272564D02*
G03*
X0401356Y0272564I-0009646J0000000D01*
G01*
X0397479Y0280617D02*
X0410269Y0290281D01*
X0395382Y0281772D02*
X0403182Y0293209D01*
X0393702Y0262913D02*
X0395407Y0252682D01*
X0399147Y0279060D02*
X0414501Y0284867D01*
X0401280Y0270442D02*
X0408596Y0266166D01*
X0399541Y0266855D02*
X0404659Y0260950D01*
X0400525Y0276599D02*
X0414206Y0277288D01*
X0401312Y0273844D02*
X0411549Y0271383D01*
X0396982Y0264395D02*
X0400547Y0256878D01*
X0379921Y0293209D02*
X0387894Y0281521D01*
X0372835Y0290281D02*
X0385902Y0280407D01*
X0368898Y0284769D02*
X0384252Y0278962D01*
X0369193Y0277288D02*
X0382874Y0276599D01*
X0371850Y0271383D02*
X0382087Y0273844D01*
X0374705Y0266265D02*
X0382020Y0270540D01*
X0378642Y0261147D02*
X0383760Y0267052D01*
X0382655Y0257075D02*
X0386221Y0264592D01*
X0387697Y0252781D02*
X0389402Y0263012D01*
X0397479Y0280617D02*
X0410269Y0290281D01*
X0395382Y0281772D02*
X0403182Y0293209D01*
X0393702Y0262913D02*
X0395407Y0252682D01*
X0399147Y0279060D02*
X0414501Y0284867D01*
X0401280Y0270442D02*
X0408596Y0266166D01*
X0399541Y0266855D02*
X0404659Y0260950D01*
X0400525Y0276599D02*
X0414206Y0277288D01*
X0401312Y0273844D02*
X0411549Y0271383D01*
X0396982Y0264395D02*
X0400547Y0256878D01*
X0379921Y0293209D02*
X0387894Y0281521D01*
X0372835Y0290281D02*
X0385902Y0280407D01*
X0368898Y0284769D02*
X0384252Y0278962D01*
X0369193Y0277288D02*
X0382874Y0276599D01*
X0371850Y0271383D02*
X0382087Y0273844D01*
X0374705Y0266265D02*
X0382020Y0270540D01*
X0378642Y0261147D02*
X0383760Y0267052D01*
X0382655Y0257075D02*
X0386221Y0264592D01*
X0387697Y0252781D02*
X0389402Y0263012D01*
D14*
X0395768Y0272564D02*
D03*
X0387697D02*
D03*
D15*
X0372047Y0330044D02*
D03*
D16*
X0389961Y0370202D02*
D03*
M02*
