G04*
G04 #@! TF.GenerationSoftware,Altium Limited,Altium Designer,18.1.7 (191)*
G04*
G04 Layer_Color=32896*
%FSAX25Y25*%
%MOIN*%
G70*
G01*
G75*
G36*
X0362367Y0370207D02*
X0362479Y0370201D01*
X0362584Y0370181D01*
X0362682Y0370161D01*
X0362774Y0370135D01*
X0362859Y0370109D01*
X0362938Y0370076D01*
X0363010Y0370043D01*
X0363076Y0370010D01*
X0363128Y0369978D01*
X0363174Y0369951D01*
X0363213Y0369925D01*
X0363246Y0369905D01*
X0363266Y0369886D01*
X0363279Y0369879D01*
X0363285Y0369873D01*
X0363351Y0369807D01*
X0363410Y0369735D01*
X0363469Y0369656D01*
X0363515Y0369577D01*
X0363594Y0369420D01*
X0363646Y0369263D01*
X0363666Y0369190D01*
X0363686Y0369118D01*
X0363699Y0369059D01*
X0363712Y0369007D01*
X0363718Y0368961D01*
Y0368928D01*
X0363725Y0368908D01*
Y0368902D01*
X0363154Y0368843D01*
X0363141Y0368994D01*
X0363115Y0369125D01*
X0363076Y0369243D01*
X0363030Y0369335D01*
X0362990Y0369413D01*
X0362951Y0369466D01*
X0362925Y0369499D01*
X0362912Y0369512D01*
X0362813Y0369590D01*
X0362708Y0369650D01*
X0362597Y0369695D01*
X0362498Y0369722D01*
X0362406Y0369741D01*
X0362328Y0369748D01*
X0362301Y0369755D01*
X0362262D01*
X0362124Y0369748D01*
X0362000Y0369722D01*
X0361895Y0369682D01*
X0361803Y0369643D01*
X0361731Y0369597D01*
X0361685Y0369564D01*
X0361652Y0369538D01*
X0361639Y0369525D01*
X0361560Y0369433D01*
X0361501Y0369341D01*
X0361455Y0369249D01*
X0361429Y0369158D01*
X0361409Y0369085D01*
X0361403Y0369020D01*
X0361396Y0368981D01*
Y0368974D01*
Y0368967D01*
X0361409Y0368849D01*
X0361436Y0368725D01*
X0361481Y0368613D01*
X0361527Y0368508D01*
X0361580Y0368423D01*
X0361626Y0368351D01*
X0361639Y0368324D01*
X0361652Y0368305D01*
X0361665Y0368298D01*
Y0368292D01*
X0361718Y0368219D01*
X0361783Y0368147D01*
X0361855Y0368069D01*
X0361934Y0367990D01*
X0362098Y0367832D01*
X0362262Y0367675D01*
X0362347Y0367603D01*
X0362420Y0367537D01*
X0362492Y0367478D01*
X0362551Y0367426D01*
X0362597Y0367386D01*
X0362636Y0367354D01*
X0362662Y0367334D01*
X0362669Y0367327D01*
X0362833Y0367190D01*
X0362984Y0367058D01*
X0363108Y0366940D01*
X0363207Y0366842D01*
X0363292Y0366757D01*
X0363351Y0366698D01*
X0363384Y0366658D01*
X0363397Y0366652D01*
Y0366645D01*
X0363489Y0366534D01*
X0363561Y0366429D01*
X0363627Y0366324D01*
X0363679Y0366232D01*
X0363718Y0366153D01*
X0363745Y0366094D01*
X0363758Y0366055D01*
X0363764Y0366048D01*
Y0366042D01*
X0363791Y0365969D01*
X0363804Y0365904D01*
X0363817Y0365838D01*
X0363823Y0365779D01*
X0363830Y0365727D01*
Y0365687D01*
Y0365661D01*
Y0365655D01*
X0360819D01*
Y0366193D01*
X0363056D01*
X0362977Y0366304D01*
X0362938Y0366350D01*
X0362905Y0366396D01*
X0362872Y0366435D01*
X0362846Y0366461D01*
X0362826Y0366481D01*
X0362820Y0366488D01*
X0362787Y0366521D01*
X0362748Y0366553D01*
X0362656Y0366638D01*
X0362551Y0366737D01*
X0362439Y0366835D01*
X0362334Y0366921D01*
X0362288Y0366960D01*
X0362249Y0366999D01*
X0362216Y0367026D01*
X0362190Y0367045D01*
X0362177Y0367058D01*
X0362170Y0367065D01*
X0362065Y0367157D01*
X0361960Y0367242D01*
X0361869Y0367327D01*
X0361783Y0367400D01*
X0361704Y0367472D01*
X0361639Y0367537D01*
X0361573Y0367596D01*
X0361521Y0367649D01*
X0361468Y0367701D01*
X0361429Y0367741D01*
X0361396Y0367773D01*
X0361363Y0367806D01*
X0361331Y0367846D01*
X0361317Y0367859D01*
X0361226Y0367970D01*
X0361147Y0368069D01*
X0361081Y0368167D01*
X0361029Y0368246D01*
X0360989Y0368318D01*
X0360963Y0368370D01*
X0360950Y0368403D01*
X0360944Y0368416D01*
X0360904Y0368515D01*
X0360878Y0368613D01*
X0360852Y0368705D01*
X0360839Y0368784D01*
X0360832Y0368856D01*
X0360825Y0368908D01*
Y0368941D01*
Y0368954D01*
X0360832Y0369053D01*
X0360845Y0369145D01*
X0360858Y0369236D01*
X0360884Y0369315D01*
X0360950Y0369473D01*
X0361016Y0369597D01*
X0361055Y0369656D01*
X0361088Y0369702D01*
X0361121Y0369748D01*
X0361154Y0369781D01*
X0361180Y0369807D01*
X0361193Y0369833D01*
X0361206Y0369840D01*
X0361212Y0369846D01*
X0361285Y0369912D01*
X0361363Y0369971D01*
X0361449Y0370017D01*
X0361534Y0370056D01*
X0361704Y0370122D01*
X0361875Y0370168D01*
X0361947Y0370181D01*
X0362019Y0370194D01*
X0362085Y0370201D01*
X0362138Y0370207D01*
X0362183Y0370214D01*
X0362249D01*
X0362367Y0370207D01*
D02*
G37*
G36*
X0376196Y0370102D02*
X0376268Y0369997D01*
X0376353Y0369892D01*
X0376432Y0369800D01*
X0376510Y0369722D01*
X0376570Y0369656D01*
X0376596Y0369637D01*
X0376615Y0369617D01*
X0376622Y0369610D01*
X0376628Y0369604D01*
X0376766Y0369492D01*
X0376904Y0369387D01*
X0377035Y0369295D01*
X0377166Y0369223D01*
X0377278Y0369158D01*
X0377324Y0369131D01*
X0377363Y0369112D01*
X0377396Y0369092D01*
X0377422Y0369085D01*
X0377435Y0369072D01*
X0377442D01*
Y0368534D01*
X0377344Y0368574D01*
X0377245Y0368620D01*
X0377147Y0368666D01*
X0377055Y0368711D01*
X0376976Y0368751D01*
X0376911Y0368784D01*
X0376871Y0368810D01*
X0376865Y0368816D01*
X0376858D01*
X0376740Y0368889D01*
X0376635Y0368961D01*
X0376543Y0369026D01*
X0376471Y0369085D01*
X0376406Y0369131D01*
X0376366Y0369171D01*
X0376333Y0369197D01*
X0376327Y0369203D01*
Y0365655D01*
X0375769D01*
Y0370214D01*
X0376130D01*
X0376196Y0370102D01*
D02*
G37*
G36*
X0355020D02*
X0355092Y0369997D01*
X0355177Y0369892D01*
X0355256Y0369800D01*
X0355335Y0369722D01*
X0355394Y0369656D01*
X0355420Y0369637D01*
X0355440Y0369617D01*
X0355446Y0369610D01*
X0355453Y0369604D01*
X0355591Y0369492D01*
X0355728Y0369387D01*
X0355860Y0369295D01*
X0355991Y0369223D01*
X0356102Y0369158D01*
X0356148Y0369131D01*
X0356188Y0369112D01*
X0356220Y0369092D01*
X0356247Y0369085D01*
X0356260Y0369072D01*
X0356266D01*
Y0368534D01*
X0356168Y0368574D01*
X0356069Y0368620D01*
X0355971Y0368666D01*
X0355879Y0368711D01*
X0355801Y0368751D01*
X0355735Y0368784D01*
X0355696Y0368810D01*
X0355689Y0368816D01*
X0355682D01*
X0355564Y0368889D01*
X0355459Y0368961D01*
X0355368Y0369026D01*
X0355295Y0369085D01*
X0355230Y0369131D01*
X0355190Y0369171D01*
X0355158Y0369197D01*
X0355151Y0369203D01*
Y0365655D01*
X0354593D01*
Y0370214D01*
X0354954D01*
X0355020Y0370102D01*
D02*
G37*
G36*
X0367733Y0370207D02*
X0367838Y0370194D01*
X0367943Y0370174D01*
X0368035Y0370148D01*
X0368212Y0370076D01*
X0368291Y0370043D01*
X0368356Y0370004D01*
X0368422Y0369958D01*
X0368474Y0369925D01*
X0368527Y0369886D01*
X0368566Y0369853D01*
X0368599Y0369827D01*
X0368619Y0369807D01*
X0368632Y0369794D01*
X0368638Y0369787D01*
X0368711Y0369709D01*
X0368770Y0369617D01*
X0368829Y0369531D01*
X0368875Y0369440D01*
X0368914Y0369341D01*
X0368947Y0369249D01*
X0368993Y0369079D01*
X0369012Y0368994D01*
X0369025Y0368921D01*
X0369032Y0368849D01*
X0369039Y0368790D01*
X0369045Y0368744D01*
Y0368711D01*
Y0368685D01*
Y0368679D01*
X0369039Y0368554D01*
X0369025Y0368443D01*
X0369012Y0368331D01*
X0368986Y0368226D01*
X0368953Y0368134D01*
X0368920Y0368042D01*
X0368888Y0367964D01*
X0368848Y0367892D01*
X0368816Y0367826D01*
X0368783Y0367767D01*
X0368750Y0367721D01*
X0368717Y0367675D01*
X0368691Y0367642D01*
X0368678Y0367623D01*
X0368665Y0367609D01*
X0368658Y0367603D01*
X0368586Y0367531D01*
X0368507Y0367472D01*
X0368428Y0367413D01*
X0368343Y0367367D01*
X0368265Y0367327D01*
X0368186Y0367295D01*
X0368035Y0367249D01*
X0367969Y0367229D01*
X0367904Y0367216D01*
X0367851Y0367209D01*
X0367799Y0367203D01*
X0367759Y0367196D01*
X0367707D01*
X0367582Y0367203D01*
X0367464Y0367222D01*
X0367359Y0367249D01*
X0367261Y0367281D01*
X0367189Y0367308D01*
X0367130Y0367334D01*
X0367090Y0367354D01*
X0367077Y0367360D01*
X0366972Y0367426D01*
X0366880Y0367498D01*
X0366802Y0367570D01*
X0366736Y0367636D01*
X0366690Y0367701D01*
X0366651Y0367747D01*
X0366624Y0367780D01*
X0366618Y0367793D01*
Y0367741D01*
Y0367708D01*
Y0367688D01*
Y0367682D01*
X0366624Y0367550D01*
X0366631Y0367426D01*
X0366644Y0367314D01*
X0366657Y0367209D01*
X0366677Y0367124D01*
X0366690Y0367058D01*
X0366697Y0367032D01*
Y0367013D01*
X0366703Y0367006D01*
Y0366999D01*
X0366736Y0366881D01*
X0366769Y0366776D01*
X0366802Y0366685D01*
X0366834Y0366606D01*
X0366861Y0366547D01*
X0366887Y0366501D01*
X0366900Y0366468D01*
X0366907Y0366461D01*
X0366959Y0366389D01*
X0367012Y0366330D01*
X0367064Y0366278D01*
X0367116Y0366232D01*
X0367156Y0366193D01*
X0367195Y0366166D01*
X0367221Y0366153D01*
X0367228Y0366146D01*
X0367300Y0366107D01*
X0367379Y0366081D01*
X0367451Y0366061D01*
X0367523Y0366048D01*
X0367582Y0366042D01*
X0367628Y0366035D01*
X0367674D01*
X0367779Y0366042D01*
X0367878Y0366061D01*
X0367963Y0366088D01*
X0368035Y0366120D01*
X0368087Y0366146D01*
X0368133Y0366173D01*
X0368160Y0366193D01*
X0368166Y0366199D01*
X0368232Y0366271D01*
X0368284Y0366356D01*
X0368330Y0366448D01*
X0368363Y0366540D01*
X0368389Y0366619D01*
X0368409Y0366691D01*
X0368415Y0366717D01*
Y0366730D01*
X0368422Y0366743D01*
Y0366750D01*
X0368960Y0366704D01*
X0368920Y0366514D01*
X0368868Y0366350D01*
X0368802Y0366206D01*
X0368737Y0366088D01*
X0368671Y0365996D01*
X0368638Y0365956D01*
X0368612Y0365924D01*
X0368593Y0365904D01*
X0368573Y0365884D01*
X0368566Y0365878D01*
X0368560Y0365871D01*
X0368494Y0365819D01*
X0368422Y0365773D01*
X0368278Y0365701D01*
X0368133Y0365648D01*
X0367996Y0365615D01*
X0367871Y0365589D01*
X0367818Y0365582D01*
X0367773D01*
X0367740Y0365576D01*
X0367687D01*
X0367504Y0365589D01*
X0367340Y0365615D01*
X0367189Y0365661D01*
X0367064Y0365714D01*
X0367012Y0365733D01*
X0366959Y0365759D01*
X0366920Y0365786D01*
X0366880Y0365805D01*
X0366854Y0365819D01*
X0366834Y0365832D01*
X0366821Y0365845D01*
X0366815D01*
X0366684Y0365956D01*
X0366565Y0366081D01*
X0366474Y0366212D01*
X0366395Y0366337D01*
X0366329Y0366448D01*
X0366303Y0366501D01*
X0366283Y0366540D01*
X0366270Y0366580D01*
X0366257Y0366606D01*
X0366251Y0366619D01*
Y0366625D01*
X0366218Y0366724D01*
X0366185Y0366835D01*
X0366139Y0367058D01*
X0366106Y0367295D01*
X0366087Y0367518D01*
X0366073Y0367616D01*
X0366067Y0367714D01*
Y0367800D01*
X0366060Y0367872D01*
Y0367931D01*
Y0367977D01*
Y0368010D01*
Y0368016D01*
Y0368167D01*
X0366067Y0368311D01*
X0366080Y0368443D01*
X0366093Y0368567D01*
X0366106Y0368679D01*
X0366119Y0368784D01*
X0366139Y0368882D01*
X0366159Y0368967D01*
X0366178Y0369040D01*
X0366192Y0369105D01*
X0366211Y0369164D01*
X0366224Y0369210D01*
X0366237Y0369243D01*
X0366251Y0369269D01*
X0366257Y0369282D01*
Y0369289D01*
X0366336Y0369446D01*
X0366421Y0369584D01*
X0366520Y0369702D01*
X0366605Y0369800D01*
X0366690Y0369873D01*
X0366756Y0369925D01*
X0366782Y0369945D01*
X0366802Y0369958D01*
X0366808Y0369971D01*
X0366815D01*
X0366952Y0370050D01*
X0367090Y0370109D01*
X0367228Y0370155D01*
X0367353Y0370181D01*
X0367464Y0370201D01*
X0367510Y0370207D01*
X0367543D01*
X0367576Y0370214D01*
X0367622D01*
X0367733Y0370207D01*
D02*
G37*
G36*
X0374024Y0365655D02*
X0373388D01*
Y0366291D01*
X0374024D01*
Y0365655D01*
D02*
G37*
G36*
X0365201D02*
X0364565D01*
Y0366291D01*
X0365201D01*
Y0365655D01*
D02*
G37*
G36*
X0349319Y0365654D02*
X0348683D01*
Y0366291D01*
X0349319D01*
Y0365654D01*
D02*
G37*
G36*
X0380092Y0370201D02*
X0380256Y0370174D01*
X0380394Y0370128D01*
X0380512Y0370082D01*
X0380610Y0370030D01*
X0380650Y0370010D01*
X0380683Y0369984D01*
X0380709Y0369971D01*
X0380729Y0369958D01*
X0380735Y0369945D01*
X0380742D01*
X0380860Y0369840D01*
X0380958Y0369715D01*
X0381043Y0369590D01*
X0381109Y0369473D01*
X0381161Y0369361D01*
X0381188Y0369315D01*
X0381201Y0369269D01*
X0381214Y0369236D01*
X0381227Y0369210D01*
X0381234Y0369197D01*
Y0369190D01*
X0381260Y0369092D01*
X0381286Y0368994D01*
X0381326Y0368777D01*
X0381358Y0368561D01*
X0381378Y0368357D01*
X0381384Y0368259D01*
X0381391Y0368174D01*
Y0368095D01*
X0381398Y0368023D01*
Y0367970D01*
Y0367924D01*
Y0367898D01*
Y0367892D01*
X0381391Y0367662D01*
X0381378Y0367445D01*
X0381358Y0367249D01*
X0381326Y0367065D01*
X0381293Y0366894D01*
X0381253Y0366743D01*
X0381214Y0366606D01*
X0381175Y0366488D01*
X0381135Y0366383D01*
X0381089Y0366291D01*
X0381056Y0366212D01*
X0381024Y0366153D01*
X0380991Y0366101D01*
X0380971Y0366068D01*
X0380958Y0366048D01*
X0380952Y0366042D01*
X0380879Y0365963D01*
X0380801Y0365891D01*
X0380715Y0365825D01*
X0380630Y0365773D01*
X0380545Y0365727D01*
X0380460Y0365687D01*
X0380374Y0365661D01*
X0380296Y0365635D01*
X0380217Y0365615D01*
X0380145Y0365602D01*
X0380079Y0365589D01*
X0380027Y0365582D01*
X0379981Y0365576D01*
X0379915D01*
X0379738Y0365589D01*
X0379574Y0365615D01*
X0379436Y0365661D01*
X0379318Y0365707D01*
X0379220Y0365753D01*
X0379187Y0365779D01*
X0379154Y0365799D01*
X0379128Y0365812D01*
X0379108Y0365825D01*
X0379102Y0365838D01*
X0379095D01*
X0378977Y0365950D01*
X0378879Y0366068D01*
X0378793Y0366199D01*
X0378728Y0366317D01*
X0378675Y0366429D01*
X0378649Y0366475D01*
X0378636Y0366521D01*
X0378623Y0366553D01*
X0378610Y0366580D01*
X0378603Y0366593D01*
Y0366599D01*
X0378570Y0366698D01*
X0378544Y0366796D01*
X0378505Y0367006D01*
X0378472Y0367222D01*
X0378452Y0367432D01*
X0378446Y0367524D01*
X0378439Y0367609D01*
Y0367688D01*
X0378432Y0367760D01*
Y0367813D01*
Y0367859D01*
Y0367885D01*
Y0367892D01*
Y0368016D01*
X0378439Y0368134D01*
Y0368239D01*
X0378446Y0368344D01*
X0378459Y0368436D01*
X0378465Y0368528D01*
X0378472Y0368607D01*
X0378485Y0368679D01*
X0378492Y0368744D01*
X0378505Y0368803D01*
X0378511Y0368849D01*
X0378518Y0368889D01*
X0378524Y0368921D01*
X0378531Y0368941D01*
X0378538Y0368954D01*
Y0368961D01*
X0378577Y0369105D01*
X0378623Y0369236D01*
X0378675Y0369348D01*
X0378715Y0369446D01*
X0378761Y0369531D01*
X0378787Y0369590D01*
X0378813Y0369623D01*
X0378820Y0369637D01*
X0378892Y0369735D01*
X0378964Y0369820D01*
X0379043Y0369892D01*
X0379115Y0369958D01*
X0379180Y0370004D01*
X0379233Y0370037D01*
X0379266Y0370056D01*
X0379272Y0370063D01*
X0379279D01*
X0379384Y0370115D01*
X0379495Y0370148D01*
X0379600Y0370174D01*
X0379699Y0370194D01*
X0379784Y0370207D01*
X0379856Y0370214D01*
X0379915D01*
X0380092Y0370201D01*
D02*
G37*
G36*
X0371269D02*
X0371433Y0370174D01*
X0371571Y0370128D01*
X0371689Y0370082D01*
X0371787Y0370030D01*
X0371827Y0370010D01*
X0371859Y0369984D01*
X0371886Y0369971D01*
X0371905Y0369958D01*
X0371912Y0369945D01*
X0371918D01*
X0372037Y0369840D01*
X0372135Y0369715D01*
X0372220Y0369590D01*
X0372286Y0369473D01*
X0372338Y0369361D01*
X0372364Y0369315D01*
X0372378Y0369269D01*
X0372391Y0369236D01*
X0372404Y0369210D01*
X0372410Y0369197D01*
Y0369190D01*
X0372437Y0369092D01*
X0372463Y0368994D01*
X0372502Y0368777D01*
X0372535Y0368561D01*
X0372555Y0368357D01*
X0372561Y0368259D01*
X0372568Y0368174D01*
Y0368095D01*
X0372574Y0368023D01*
Y0367970D01*
Y0367924D01*
Y0367898D01*
Y0367892D01*
X0372568Y0367662D01*
X0372555Y0367445D01*
X0372535Y0367249D01*
X0372502Y0367065D01*
X0372469Y0366894D01*
X0372430Y0366743D01*
X0372391Y0366606D01*
X0372351Y0366488D01*
X0372312Y0366383D01*
X0372266Y0366291D01*
X0372233Y0366212D01*
X0372200Y0366153D01*
X0372168Y0366101D01*
X0372148Y0366068D01*
X0372135Y0366048D01*
X0372128Y0366042D01*
X0372056Y0365963D01*
X0371977Y0365891D01*
X0371892Y0365825D01*
X0371807Y0365773D01*
X0371722Y0365727D01*
X0371636Y0365687D01*
X0371551Y0365661D01*
X0371472Y0365635D01*
X0371394Y0365615D01*
X0371322Y0365602D01*
X0371256Y0365589D01*
X0371203Y0365582D01*
X0371158Y0365576D01*
X0371092D01*
X0370915Y0365589D01*
X0370751Y0365615D01*
X0370613Y0365661D01*
X0370495Y0365707D01*
X0370396Y0365753D01*
X0370364Y0365779D01*
X0370331Y0365799D01*
X0370305Y0365812D01*
X0370285Y0365825D01*
X0370278Y0365838D01*
X0370272D01*
X0370154Y0365950D01*
X0370055Y0366068D01*
X0369970Y0366199D01*
X0369904Y0366317D01*
X0369852Y0366429D01*
X0369826Y0366475D01*
X0369813Y0366521D01*
X0369800Y0366553D01*
X0369786Y0366580D01*
X0369780Y0366593D01*
Y0366599D01*
X0369747Y0366698D01*
X0369721Y0366796D01*
X0369682Y0367006D01*
X0369649Y0367222D01*
X0369629Y0367432D01*
X0369622Y0367524D01*
X0369616Y0367609D01*
Y0367688D01*
X0369609Y0367760D01*
Y0367813D01*
Y0367859D01*
Y0367885D01*
Y0367892D01*
Y0368016D01*
X0369616Y0368134D01*
Y0368239D01*
X0369622Y0368344D01*
X0369636Y0368436D01*
X0369642Y0368528D01*
X0369649Y0368607D01*
X0369662Y0368679D01*
X0369668Y0368744D01*
X0369682Y0368803D01*
X0369688Y0368849D01*
X0369695Y0368889D01*
X0369701Y0368921D01*
X0369708Y0368941D01*
X0369714Y0368954D01*
Y0368961D01*
X0369754Y0369105D01*
X0369800Y0369236D01*
X0369852Y0369348D01*
X0369891Y0369446D01*
X0369937Y0369531D01*
X0369964Y0369590D01*
X0369990Y0369623D01*
X0369996Y0369637D01*
X0370069Y0369735D01*
X0370141Y0369820D01*
X0370219Y0369892D01*
X0370292Y0369958D01*
X0370357Y0370004D01*
X0370410Y0370037D01*
X0370442Y0370056D01*
X0370449Y0370063D01*
X0370456D01*
X0370561Y0370115D01*
X0370672Y0370148D01*
X0370777Y0370174D01*
X0370875Y0370194D01*
X0370961Y0370207D01*
X0371033Y0370214D01*
X0371092D01*
X0371269Y0370201D01*
D02*
G37*
G36*
X0358916D02*
X0359081Y0370174D01*
X0359218Y0370128D01*
X0359336Y0370082D01*
X0359435Y0370030D01*
X0359474Y0370010D01*
X0359507Y0369984D01*
X0359533Y0369971D01*
X0359553Y0369958D01*
X0359559Y0369945D01*
X0359566D01*
X0359684Y0369840D01*
X0359782Y0369715D01*
X0359868Y0369590D01*
X0359933Y0369473D01*
X0359986Y0369361D01*
X0360012Y0369315D01*
X0360025Y0369269D01*
X0360038Y0369236D01*
X0360051Y0369210D01*
X0360058Y0369197D01*
Y0369190D01*
X0360084Y0369092D01*
X0360110Y0368994D01*
X0360150Y0368777D01*
X0360183Y0368561D01*
X0360202Y0368357D01*
X0360209Y0368259D01*
X0360215Y0368174D01*
Y0368095D01*
X0360222Y0368023D01*
Y0367970D01*
Y0367924D01*
Y0367898D01*
Y0367892D01*
X0360215Y0367662D01*
X0360202Y0367445D01*
X0360183Y0367249D01*
X0360150Y0367065D01*
X0360117Y0366894D01*
X0360078Y0366743D01*
X0360038Y0366606D01*
X0359999Y0366488D01*
X0359960Y0366383D01*
X0359914Y0366291D01*
X0359881Y0366212D01*
X0359848Y0366153D01*
X0359815Y0366101D01*
X0359796Y0366068D01*
X0359782Y0366048D01*
X0359776Y0366042D01*
X0359704Y0365963D01*
X0359625Y0365891D01*
X0359540Y0365825D01*
X0359454Y0365773D01*
X0359369Y0365727D01*
X0359284Y0365687D01*
X0359199Y0365661D01*
X0359120Y0365635D01*
X0359041Y0365615D01*
X0358969Y0365602D01*
X0358903Y0365589D01*
X0358851Y0365582D01*
X0358805Y0365576D01*
X0358739D01*
X0358562Y0365589D01*
X0358398Y0365615D01*
X0358260Y0365661D01*
X0358142Y0365707D01*
X0358044Y0365753D01*
X0358011Y0365779D01*
X0357978Y0365799D01*
X0357952Y0365812D01*
X0357932Y0365825D01*
X0357926Y0365838D01*
X0357919D01*
X0357801Y0365950D01*
X0357703Y0366068D01*
X0357618Y0366199D01*
X0357552Y0366317D01*
X0357500Y0366429D01*
X0357473Y0366475D01*
X0357460Y0366521D01*
X0357447Y0366553D01*
X0357434Y0366580D01*
X0357427Y0366593D01*
Y0366599D01*
X0357395Y0366698D01*
X0357368Y0366796D01*
X0357329Y0367006D01*
X0357296Y0367222D01*
X0357277Y0367432D01*
X0357270Y0367524D01*
X0357263Y0367609D01*
Y0367688D01*
X0357257Y0367760D01*
Y0367813D01*
Y0367859D01*
Y0367885D01*
Y0367892D01*
Y0368016D01*
X0357263Y0368134D01*
Y0368239D01*
X0357270Y0368344D01*
X0357283Y0368436D01*
X0357290Y0368528D01*
X0357296Y0368607D01*
X0357309Y0368679D01*
X0357316Y0368744D01*
X0357329Y0368803D01*
X0357336Y0368849D01*
X0357342Y0368889D01*
X0357349Y0368921D01*
X0357355Y0368941D01*
X0357362Y0368954D01*
Y0368961D01*
X0357401Y0369105D01*
X0357447Y0369236D01*
X0357500Y0369348D01*
X0357539Y0369446D01*
X0357585Y0369531D01*
X0357611Y0369590D01*
X0357637Y0369623D01*
X0357644Y0369637D01*
X0357716Y0369735D01*
X0357788Y0369820D01*
X0357867Y0369892D01*
X0357939Y0369958D01*
X0358005Y0370004D01*
X0358057Y0370037D01*
X0358090Y0370056D01*
X0358097Y0370063D01*
X0358103D01*
X0358208Y0370115D01*
X0358320Y0370148D01*
X0358424Y0370174D01*
X0358523Y0370194D01*
X0358608Y0370207D01*
X0358680Y0370214D01*
X0358739D01*
X0358916Y0370201D01*
D02*
G37*
G36*
X0351792Y0370207D02*
X0351897Y0370201D01*
X0352081Y0370161D01*
X0352166Y0370135D01*
X0352245Y0370109D01*
X0352317Y0370076D01*
X0352383Y0370043D01*
X0352435Y0370010D01*
X0352488Y0369978D01*
X0352534Y0369951D01*
X0352566Y0369925D01*
X0352593Y0369905D01*
X0352612Y0369886D01*
X0352625Y0369879D01*
X0352632Y0369873D01*
X0352691Y0369807D01*
X0352750Y0369741D01*
X0352796Y0369669D01*
X0352835Y0369597D01*
X0352901Y0369459D01*
X0352940Y0369328D01*
X0352967Y0369217D01*
X0352973Y0369164D01*
X0352980Y0369125D01*
X0352986Y0369085D01*
Y0369059D01*
Y0369046D01*
Y0369040D01*
X0352980Y0368921D01*
X0352960Y0368810D01*
X0352934Y0368711D01*
X0352901Y0368626D01*
X0352875Y0368561D01*
X0352849Y0368508D01*
X0352829Y0368482D01*
X0352822Y0368469D01*
X0352750Y0368390D01*
X0352671Y0368318D01*
X0352586Y0368252D01*
X0352501Y0368200D01*
X0352422Y0368161D01*
X0352363Y0368134D01*
X0352337Y0368121D01*
X0352317Y0368114D01*
X0352311Y0368108D01*
X0352304D01*
X0352455Y0368062D01*
X0352580Y0368003D01*
X0352691Y0367931D01*
X0352783Y0367865D01*
X0352855Y0367800D01*
X0352908Y0367747D01*
X0352934Y0367714D01*
X0352947Y0367708D01*
Y0367701D01*
X0353019Y0367583D01*
X0353078Y0367459D01*
X0353117Y0367340D01*
X0353144Y0367222D01*
X0353157Y0367117D01*
X0353163Y0367072D01*
Y0367032D01*
X0353170Y0367006D01*
Y0366980D01*
Y0366967D01*
Y0366960D01*
X0353163Y0366855D01*
X0353150Y0366750D01*
X0353131Y0366652D01*
X0353104Y0366553D01*
X0353039Y0366389D01*
X0353006Y0366311D01*
X0352967Y0366245D01*
X0352927Y0366179D01*
X0352894Y0366127D01*
X0352855Y0366081D01*
X0352829Y0366042D01*
X0352803Y0366009D01*
X0352783Y0365989D01*
X0352770Y0365976D01*
X0352763Y0365969D01*
X0352684Y0365897D01*
X0352599Y0365838D01*
X0352507Y0365786D01*
X0352416Y0365740D01*
X0352330Y0365707D01*
X0352238Y0365674D01*
X0352061Y0365628D01*
X0351983Y0365609D01*
X0351910Y0365596D01*
X0351845Y0365589D01*
X0351786Y0365582D01*
X0351740Y0365576D01*
X0351674D01*
X0351550Y0365582D01*
X0351438Y0365596D01*
X0351327Y0365615D01*
X0351222Y0365635D01*
X0351130Y0365668D01*
X0351038Y0365701D01*
X0350953Y0365733D01*
X0350881Y0365773D01*
X0350815Y0365812D01*
X0350756Y0365845D01*
X0350710Y0365878D01*
X0350664Y0365910D01*
X0350631Y0365930D01*
X0350612Y0365950D01*
X0350598Y0365963D01*
X0350592Y0365969D01*
X0350520Y0366048D01*
X0350454Y0366127D01*
X0350402Y0366206D01*
X0350356Y0366291D01*
X0350310Y0366370D01*
X0350277Y0366455D01*
X0350231Y0366606D01*
X0350211Y0366678D01*
X0350198Y0366743D01*
X0350192Y0366803D01*
X0350185Y0366848D01*
X0350179Y0366888D01*
Y0366921D01*
Y0366940D01*
Y0366947D01*
X0350185Y0367098D01*
X0350211Y0367235D01*
X0350251Y0367360D01*
X0350290Y0367465D01*
X0350329Y0367550D01*
X0350369Y0367616D01*
X0350395Y0367655D01*
X0350402Y0367662D01*
Y0367669D01*
X0350494Y0367773D01*
X0350592Y0367865D01*
X0350697Y0367937D01*
X0350795Y0368003D01*
X0350887Y0368049D01*
X0350966Y0368082D01*
X0350992Y0368095D01*
X0351012Y0368101D01*
X0351025Y0368108D01*
X0351031D01*
X0350913Y0368161D01*
X0350815Y0368219D01*
X0350730Y0368279D01*
X0350658Y0368338D01*
X0350605Y0368390D01*
X0350566Y0368429D01*
X0350539Y0368456D01*
X0350533Y0368469D01*
X0350474Y0368561D01*
X0350434Y0368653D01*
X0350402Y0368744D01*
X0350382Y0368836D01*
X0350369Y0368908D01*
X0350362Y0368967D01*
Y0369007D01*
Y0369013D01*
Y0369020D01*
X0350369Y0369112D01*
X0350375Y0369197D01*
X0350421Y0369361D01*
X0350480Y0369505D01*
X0350546Y0369630D01*
X0350612Y0369728D01*
X0350644Y0369768D01*
X0350671Y0369807D01*
X0350697Y0369833D01*
X0350716Y0369853D01*
X0350723Y0369860D01*
X0350730Y0369866D01*
X0350802Y0369925D01*
X0350874Y0369984D01*
X0350953Y0370030D01*
X0351031Y0370069D01*
X0351189Y0370128D01*
X0351346Y0370168D01*
X0351412Y0370187D01*
X0351478Y0370194D01*
X0351536Y0370201D01*
X0351589Y0370207D01*
X0351628Y0370214D01*
X0351687D01*
X0351792Y0370207D01*
D02*
G37*
G36*
X0432665Y0370811D02*
X0432107D01*
Y0371447D01*
X0432665D01*
Y0370811D01*
D02*
G37*
G36*
X0417492D02*
X0416934D01*
Y0371447D01*
X0417492D01*
Y0370811D01*
D02*
G37*
G36*
X0431261Y0370798D02*
X0430704D01*
Y0371447D01*
X0431261D01*
Y0370798D01*
D02*
G37*
G36*
X0406563Y0370798D02*
X0406005D01*
Y0371447D01*
X0406563D01*
Y0370798D01*
D02*
G37*
G36*
X0428611Y0370266D02*
X0428749Y0370253D01*
X0428880Y0370233D01*
X0428985Y0370214D01*
X0429077Y0370194D01*
X0429142Y0370174D01*
X0429169Y0370168D01*
X0429188Y0370161D01*
X0429195Y0370155D01*
X0429201D01*
X0429313Y0370109D01*
X0429411Y0370050D01*
X0429497Y0369997D01*
X0429569Y0369945D01*
X0429621Y0369892D01*
X0429661Y0369853D01*
X0429687Y0369827D01*
X0429693Y0369820D01*
X0429752Y0369735D01*
X0429805Y0369643D01*
X0429844Y0369551D01*
X0429877Y0369466D01*
X0429903Y0369381D01*
X0429923Y0369322D01*
X0429930Y0369295D01*
Y0369276D01*
X0429936Y0369269D01*
Y0369263D01*
X0429392Y0369190D01*
X0429352Y0369308D01*
X0429313Y0369413D01*
X0429267Y0369499D01*
X0429228Y0369564D01*
X0429188Y0369617D01*
X0429155Y0369650D01*
X0429129Y0369669D01*
X0429123Y0369676D01*
X0429044Y0369722D01*
X0428952Y0369755D01*
X0428854Y0369781D01*
X0428762Y0369794D01*
X0428670Y0369807D01*
X0428605Y0369814D01*
X0428539D01*
X0428388Y0369807D01*
X0428257Y0369787D01*
X0428152Y0369755D01*
X0428060Y0369722D01*
X0427994Y0369682D01*
X0427942Y0369656D01*
X0427909Y0369630D01*
X0427903Y0369623D01*
X0427850Y0369564D01*
X0427811Y0369492D01*
X0427778Y0369413D01*
X0427758Y0369335D01*
X0427745Y0369263D01*
X0427739Y0369197D01*
Y0369158D01*
Y0369151D01*
Y0369145D01*
Y0369131D01*
Y0369105D01*
Y0369059D01*
X0427745Y0369020D01*
Y0369007D01*
Y0369000D01*
X0427811Y0368981D01*
X0427883Y0368961D01*
X0428034Y0368921D01*
X0428204Y0368889D01*
X0428362Y0368856D01*
X0428441Y0368843D01*
X0428513Y0368836D01*
X0428578Y0368823D01*
X0428631Y0368816D01*
X0428677Y0368810D01*
X0428709D01*
X0428736Y0368803D01*
X0428742D01*
X0428860Y0368790D01*
X0428959Y0368771D01*
X0429044Y0368757D01*
X0429110Y0368744D01*
X0429162Y0368738D01*
X0429201Y0368725D01*
X0429228Y0368718D01*
X0429234D01*
X0429319Y0368692D01*
X0429392Y0368666D01*
X0429464Y0368633D01*
X0429523Y0368607D01*
X0429575Y0368580D01*
X0429608Y0368554D01*
X0429634Y0368541D01*
X0429641Y0368534D01*
X0429706Y0368489D01*
X0429759Y0368436D01*
X0429811Y0368384D01*
X0429851Y0368331D01*
X0429884Y0368285D01*
X0429910Y0368246D01*
X0429923Y0368219D01*
X0429930Y0368213D01*
X0429962Y0368141D01*
X0429989Y0368062D01*
X0430008Y0367990D01*
X0430021Y0367918D01*
X0430028Y0367859D01*
X0430035Y0367813D01*
Y0367787D01*
Y0367773D01*
X0430028Y0367695D01*
X0430021Y0367629D01*
X0429989Y0367491D01*
X0429943Y0367380D01*
X0429890Y0367281D01*
X0429838Y0367203D01*
X0429792Y0367144D01*
X0429759Y0367111D01*
X0429746Y0367098D01*
X0429628Y0367013D01*
X0429497Y0366947D01*
X0429352Y0366901D01*
X0429221Y0366868D01*
X0429103Y0366848D01*
X0429051Y0366842D01*
X0429005D01*
X0428965Y0366835D01*
X0428913D01*
X0428795Y0366842D01*
X0428677Y0366855D01*
X0428572Y0366868D01*
X0428480Y0366888D01*
X0428408Y0366908D01*
X0428349Y0366927D01*
X0428309Y0366934D01*
X0428296Y0366940D01*
X0428185Y0366986D01*
X0428080Y0367045D01*
X0427981Y0367111D01*
X0427883Y0367170D01*
X0427804Y0367229D01*
X0427745Y0367275D01*
X0427706Y0367308D01*
X0427699Y0367321D01*
X0427693D01*
X0427679Y0367235D01*
X0427666Y0367157D01*
X0427653Y0367085D01*
X0427634Y0367026D01*
X0427614Y0366973D01*
X0427601Y0366940D01*
X0427594Y0366914D01*
X0427588Y0366908D01*
X0427004D01*
X0427037Y0366980D01*
X0427069Y0367052D01*
X0427096Y0367117D01*
X0427109Y0367177D01*
X0427129Y0367229D01*
X0427135Y0367268D01*
X0427142Y0367295D01*
Y0367301D01*
X0427148Y0367347D01*
X0427155Y0367406D01*
Y0367472D01*
X0427161Y0367544D01*
X0427168Y0367708D01*
Y0367872D01*
X0427174Y0368029D01*
Y0368101D01*
Y0368161D01*
Y0368213D01*
Y0368252D01*
Y0368279D01*
Y0368285D01*
Y0369033D01*
Y0369158D01*
X0427181Y0369269D01*
X0427187Y0369354D01*
Y0369426D01*
X0427194Y0369479D01*
X0427201Y0369518D01*
X0427207Y0369538D01*
Y0369545D01*
X0427227Y0369630D01*
X0427253Y0369702D01*
X0427279Y0369761D01*
X0427312Y0369820D01*
X0427338Y0369860D01*
X0427358Y0369892D01*
X0427371Y0369912D01*
X0427378Y0369919D01*
X0427430Y0369971D01*
X0427489Y0370023D01*
X0427555Y0370063D01*
X0427621Y0370102D01*
X0427679Y0370128D01*
X0427725Y0370148D01*
X0427758Y0370161D01*
X0427771Y0370168D01*
X0427876Y0370201D01*
X0427988Y0370227D01*
X0428099Y0370247D01*
X0428211Y0370260D01*
X0428309Y0370266D01*
X0428381Y0370273D01*
X0428454D01*
X0428611Y0370266D01*
D02*
G37*
G36*
X0421553D02*
X0421690Y0370253D01*
X0421821Y0370233D01*
X0421926Y0370214D01*
X0422018Y0370194D01*
X0422084Y0370174D01*
X0422110Y0370168D01*
X0422130Y0370161D01*
X0422136Y0370155D01*
X0422143D01*
X0422254Y0370109D01*
X0422353Y0370050D01*
X0422438Y0369997D01*
X0422510Y0369945D01*
X0422563Y0369892D01*
X0422602Y0369853D01*
X0422628Y0369827D01*
X0422635Y0369820D01*
X0422694Y0369735D01*
X0422746Y0369643D01*
X0422786Y0369551D01*
X0422819Y0369466D01*
X0422845Y0369381D01*
X0422864Y0369322D01*
X0422871Y0369295D01*
Y0369276D01*
X0422878Y0369269D01*
Y0369263D01*
X0422333Y0369190D01*
X0422294Y0369308D01*
X0422254Y0369413D01*
X0422208Y0369499D01*
X0422169Y0369564D01*
X0422130Y0369617D01*
X0422097Y0369650D01*
X0422071Y0369669D01*
X0422064Y0369676D01*
X0421985Y0369722D01*
X0421894Y0369755D01*
X0421795Y0369781D01*
X0421703Y0369794D01*
X0421611Y0369807D01*
X0421546Y0369814D01*
X0421480D01*
X0421329Y0369807D01*
X0421198Y0369787D01*
X0421093Y0369755D01*
X0421001Y0369722D01*
X0420936Y0369682D01*
X0420883Y0369656D01*
X0420851Y0369630D01*
X0420844Y0369623D01*
X0420791Y0369564D01*
X0420752Y0369492D01*
X0420719Y0369413D01*
X0420700Y0369335D01*
X0420686Y0369263D01*
X0420680Y0369197D01*
Y0369158D01*
Y0369151D01*
Y0369145D01*
Y0369131D01*
Y0369105D01*
Y0369059D01*
X0420686Y0369020D01*
Y0369007D01*
Y0369000D01*
X0420752Y0368981D01*
X0420824Y0368961D01*
X0420975Y0368921D01*
X0421146Y0368889D01*
X0421303Y0368856D01*
X0421382Y0368843D01*
X0421454Y0368836D01*
X0421520Y0368823D01*
X0421572Y0368816D01*
X0421618Y0368810D01*
X0421651D01*
X0421677Y0368803D01*
X0421684D01*
X0421802Y0368790D01*
X0421900Y0368771D01*
X0421985Y0368757D01*
X0422051Y0368744D01*
X0422104Y0368738D01*
X0422143Y0368725D01*
X0422169Y0368718D01*
X0422176D01*
X0422261Y0368692D01*
X0422333Y0368666D01*
X0422405Y0368633D01*
X0422464Y0368607D01*
X0422517Y0368580D01*
X0422550Y0368554D01*
X0422576Y0368541D01*
X0422582Y0368534D01*
X0422648Y0368489D01*
X0422701Y0368436D01*
X0422753Y0368384D01*
X0422792Y0368331D01*
X0422825Y0368285D01*
X0422851Y0368246D01*
X0422864Y0368219D01*
X0422871Y0368213D01*
X0422904Y0368141D01*
X0422930Y0368062D01*
X0422950Y0367990D01*
X0422963Y0367918D01*
X0422969Y0367859D01*
X0422976Y0367813D01*
Y0367787D01*
Y0367773D01*
X0422969Y0367695D01*
X0422963Y0367629D01*
X0422930Y0367491D01*
X0422884Y0367380D01*
X0422832Y0367281D01*
X0422779Y0367203D01*
X0422733Y0367144D01*
X0422701Y0367111D01*
X0422687Y0367098D01*
X0422569Y0367013D01*
X0422438Y0366947D01*
X0422294Y0366901D01*
X0422163Y0366868D01*
X0422045Y0366848D01*
X0421992Y0366842D01*
X0421946D01*
X0421907Y0366835D01*
X0421854D01*
X0421736Y0366842D01*
X0421618Y0366855D01*
X0421513Y0366868D01*
X0421421Y0366888D01*
X0421349Y0366908D01*
X0421290Y0366927D01*
X0421251Y0366934D01*
X0421238Y0366940D01*
X0421126Y0366986D01*
X0421021Y0367045D01*
X0420923Y0367111D01*
X0420824Y0367170D01*
X0420746Y0367229D01*
X0420686Y0367275D01*
X0420647Y0367308D01*
X0420641Y0367321D01*
X0420634D01*
X0420621Y0367235D01*
X0420608Y0367157D01*
X0420595Y0367085D01*
X0420575Y0367026D01*
X0420555Y0366973D01*
X0420542Y0366940D01*
X0420536Y0366914D01*
X0420529Y0366908D01*
X0419945D01*
X0419978Y0366980D01*
X0420011Y0367052D01*
X0420037Y0367117D01*
X0420050Y0367177D01*
X0420070Y0367229D01*
X0420077Y0367268D01*
X0420083Y0367295D01*
Y0367301D01*
X0420090Y0367347D01*
X0420096Y0367406D01*
Y0367472D01*
X0420103Y0367544D01*
X0420109Y0367708D01*
Y0367872D01*
X0420116Y0368029D01*
Y0368101D01*
Y0368161D01*
Y0368213D01*
Y0368252D01*
Y0368279D01*
Y0368285D01*
Y0369033D01*
Y0369158D01*
X0420122Y0369269D01*
X0420129Y0369354D01*
Y0369426D01*
X0420135Y0369479D01*
X0420142Y0369518D01*
X0420149Y0369538D01*
Y0369545D01*
X0420168Y0369630D01*
X0420194Y0369702D01*
X0420221Y0369761D01*
X0420254Y0369820D01*
X0420280Y0369860D01*
X0420299Y0369892D01*
X0420313Y0369912D01*
X0420319Y0369919D01*
X0420372Y0369971D01*
X0420431Y0370023D01*
X0420496Y0370063D01*
X0420562Y0370102D01*
X0420621Y0370128D01*
X0420667Y0370148D01*
X0420700Y0370161D01*
X0420713Y0370168D01*
X0420818Y0370201D01*
X0420929Y0370227D01*
X0421041Y0370247D01*
X0421152Y0370260D01*
X0421251Y0370266D01*
X0421323Y0370273D01*
X0421395D01*
X0421553Y0370266D01*
D02*
G37*
G36*
X0403913Y0370266D02*
X0404050Y0370253D01*
X0404182Y0370233D01*
X0404286Y0370214D01*
X0404378Y0370194D01*
X0404444Y0370174D01*
X0404470Y0370168D01*
X0404490Y0370161D01*
X0404496Y0370155D01*
X0404503D01*
X0404615Y0370109D01*
X0404713Y0370050D01*
X0404798Y0369997D01*
X0404870Y0369945D01*
X0404923Y0369892D01*
X0404962Y0369853D01*
X0404988Y0369827D01*
X0404995Y0369820D01*
X0405054Y0369735D01*
X0405107Y0369643D01*
X0405146Y0369551D01*
X0405179Y0369466D01*
X0405205Y0369381D01*
X0405225Y0369322D01*
X0405231Y0369295D01*
Y0369276D01*
X0405238Y0369269D01*
Y0369263D01*
X0404693Y0369190D01*
X0404654Y0369308D01*
X0404615Y0369413D01*
X0404569Y0369499D01*
X0404529Y0369564D01*
X0404490Y0369617D01*
X0404457Y0369650D01*
X0404431Y0369669D01*
X0404424Y0369676D01*
X0404346Y0369722D01*
X0404254Y0369755D01*
X0404155Y0369781D01*
X0404064Y0369794D01*
X0403972Y0369807D01*
X0403906Y0369814D01*
X0403840D01*
X0403690Y0369807D01*
X0403558Y0369787D01*
X0403453Y0369755D01*
X0403362Y0369722D01*
X0403296Y0369682D01*
X0403243Y0369656D01*
X0403211Y0369630D01*
X0403204Y0369623D01*
X0403152Y0369564D01*
X0403112Y0369492D01*
X0403080Y0369413D01*
X0403060Y0369335D01*
X0403047Y0369263D01*
X0403040Y0369197D01*
Y0369158D01*
Y0369151D01*
Y0369145D01*
Y0369131D01*
Y0369105D01*
Y0369059D01*
X0403047Y0369020D01*
Y0369007D01*
Y0369000D01*
X0403112Y0368981D01*
X0403185Y0368961D01*
X0403335Y0368921D01*
X0403506Y0368889D01*
X0403663Y0368856D01*
X0403742Y0368843D01*
X0403814Y0368836D01*
X0403880Y0368823D01*
X0403932Y0368816D01*
X0403978Y0368810D01*
X0404011D01*
X0404037Y0368803D01*
X0404044D01*
X0404162Y0368790D01*
X0404260Y0368771D01*
X0404346Y0368757D01*
X0404411Y0368744D01*
X0404464Y0368738D01*
X0404503Y0368725D01*
X0404529Y0368718D01*
X0404536D01*
X0404621Y0368692D01*
X0404693Y0368666D01*
X0404765Y0368633D01*
X0404824Y0368606D01*
X0404877Y0368580D01*
X0404910Y0368554D01*
X0404936Y0368541D01*
X0404943Y0368534D01*
X0405008Y0368489D01*
X0405061Y0368436D01*
X0405113Y0368384D01*
X0405153Y0368331D01*
X0405185Y0368285D01*
X0405211Y0368246D01*
X0405225Y0368219D01*
X0405231Y0368213D01*
X0405264Y0368141D01*
X0405290Y0368062D01*
X0405310Y0367990D01*
X0405323Y0367918D01*
X0405330Y0367859D01*
X0405336Y0367813D01*
Y0367787D01*
Y0367773D01*
X0405330Y0367695D01*
X0405323Y0367629D01*
X0405290Y0367491D01*
X0405244Y0367380D01*
X0405192Y0367281D01*
X0405139Y0367203D01*
X0405093Y0367144D01*
X0405061Y0367111D01*
X0405048Y0367098D01*
X0404929Y0367013D01*
X0404798Y0366947D01*
X0404654Y0366901D01*
X0404523Y0366868D01*
X0404405Y0366848D01*
X0404352Y0366842D01*
X0404306D01*
X0404267Y0366835D01*
X0404214D01*
X0404096Y0366842D01*
X0403978Y0366855D01*
X0403873Y0366868D01*
X0403781Y0366888D01*
X0403709Y0366908D01*
X0403650Y0366927D01*
X0403611Y0366934D01*
X0403598Y0366940D01*
X0403486Y0366986D01*
X0403381Y0367045D01*
X0403283Y0367111D01*
X0403185Y0367170D01*
X0403106Y0367229D01*
X0403047Y0367275D01*
X0403007Y0367308D01*
X0403001Y0367321D01*
X0402994D01*
X0402981Y0367235D01*
X0402968Y0367157D01*
X0402955Y0367085D01*
X0402935Y0367026D01*
X0402915Y0366973D01*
X0402902Y0366940D01*
X0402896Y0366914D01*
X0402889Y0366908D01*
X0402305D01*
X0402338Y0366980D01*
X0402371Y0367052D01*
X0402397Y0367117D01*
X0402410Y0367177D01*
X0402430Y0367229D01*
X0402437Y0367268D01*
X0402443Y0367295D01*
Y0367301D01*
X0402450Y0367347D01*
X0402456Y0367406D01*
Y0367472D01*
X0402463Y0367544D01*
X0402469Y0367708D01*
Y0367872D01*
X0402476Y0368029D01*
Y0368101D01*
Y0368161D01*
Y0368213D01*
Y0368252D01*
Y0368279D01*
Y0368285D01*
Y0369033D01*
Y0369158D01*
X0402483Y0369269D01*
X0402489Y0369354D01*
Y0369426D01*
X0402496Y0369479D01*
X0402502Y0369518D01*
X0402509Y0369538D01*
Y0369545D01*
X0402528Y0369630D01*
X0402555Y0369702D01*
X0402581Y0369761D01*
X0402614Y0369820D01*
X0402640Y0369860D01*
X0402660Y0369892D01*
X0402673Y0369912D01*
X0402679Y0369918D01*
X0402732Y0369971D01*
X0402791Y0370023D01*
X0402856Y0370063D01*
X0402922Y0370102D01*
X0402981Y0370128D01*
X0403027Y0370148D01*
X0403060Y0370161D01*
X0403073Y0370168D01*
X0403178Y0370201D01*
X0403289Y0370227D01*
X0403401Y0370247D01*
X0403512Y0370260D01*
X0403611Y0370266D01*
X0403683Y0370273D01*
X0403755D01*
X0403913Y0370266D01*
D02*
G37*
G36*
X0412959Y0366908D02*
X0412329D01*
X0410558Y0371447D01*
X0411168D01*
X0412401Y0368147D01*
X0412454Y0368010D01*
X0412500Y0367878D01*
X0412539Y0367754D01*
X0412572Y0367642D01*
X0412605Y0367544D01*
X0412624Y0367472D01*
X0412631Y0367445D01*
X0412637Y0367426D01*
X0412644Y0367413D01*
Y0367406D01*
X0412723Y0367669D01*
X0412762Y0367793D01*
X0412801Y0367905D01*
X0412834Y0368003D01*
X0412847Y0368042D01*
X0412854Y0368082D01*
X0412867Y0368108D01*
X0412874Y0368128D01*
X0412880Y0368141D01*
Y0368147D01*
X0414061Y0371447D01*
X0414717D01*
X0412959Y0366908D01*
D02*
G37*
G36*
X0436811Y0370909D02*
X0435315D01*
Y0366908D01*
X0434712D01*
Y0370909D01*
X0433216D01*
Y0371447D01*
X0436811D01*
Y0370909D01*
D02*
G37*
G36*
X0432665Y0366908D02*
X0432107D01*
Y0370201D01*
X0432665D01*
Y0366908D01*
D02*
G37*
G36*
X0424898Y0370266D02*
X0425016Y0370247D01*
X0425121Y0370220D01*
X0425226Y0370187D01*
X0425318Y0370148D01*
X0425403Y0370102D01*
X0425482Y0370050D01*
X0425548Y0370004D01*
X0425613Y0369951D01*
X0425666Y0369899D01*
X0425711Y0369853D01*
X0425751Y0369814D01*
X0425777Y0369781D01*
X0425797Y0369755D01*
X0425810Y0369735D01*
X0425816Y0369728D01*
Y0370201D01*
X0426315D01*
Y0366908D01*
X0425757D01*
Y0368698D01*
Y0368810D01*
X0425744Y0368921D01*
X0425731Y0369013D01*
X0425718Y0369098D01*
X0425698Y0369177D01*
X0425679Y0369249D01*
X0425653Y0369315D01*
X0425626Y0369368D01*
X0425606Y0369413D01*
X0425580Y0369453D01*
X0425561Y0369486D01*
X0425541Y0369512D01*
X0425515Y0369545D01*
X0425502Y0369558D01*
X0425403Y0369637D01*
X0425298Y0369689D01*
X0425193Y0369728D01*
X0425101Y0369761D01*
X0425016Y0369774D01*
X0424951Y0369781D01*
X0424924Y0369787D01*
X0424892D01*
X0424813Y0369781D01*
X0424734Y0369774D01*
X0424669Y0369755D01*
X0424616Y0369735D01*
X0424570Y0369715D01*
X0424531Y0369702D01*
X0424511Y0369689D01*
X0424505Y0369682D01*
X0424445Y0369643D01*
X0424393Y0369597D01*
X0424354Y0369551D01*
X0424321Y0369512D01*
X0424301Y0369473D01*
X0424281Y0369440D01*
X0424268Y0369420D01*
Y0369413D01*
X0424249Y0369341D01*
X0424229Y0369263D01*
X0424216Y0369177D01*
X0424209Y0369092D01*
X0424203Y0369020D01*
Y0368961D01*
Y0368915D01*
Y0368908D01*
Y0368902D01*
Y0366908D01*
X0423645D01*
Y0368928D01*
Y0369066D01*
X0423652Y0369177D01*
X0423658Y0369269D01*
Y0369348D01*
X0423665Y0369400D01*
X0423671Y0369440D01*
X0423678Y0369466D01*
Y0369473D01*
X0423698Y0369558D01*
X0423730Y0369637D01*
X0423757Y0369702D01*
X0423783Y0369768D01*
X0423816Y0369814D01*
X0423835Y0369846D01*
X0423848Y0369873D01*
X0423855Y0369879D01*
X0423908Y0369945D01*
X0423967Y0369997D01*
X0424026Y0370050D01*
X0424091Y0370089D01*
X0424144Y0370122D01*
X0424190Y0370142D01*
X0424216Y0370155D01*
X0424229Y0370161D01*
X0424321Y0370201D01*
X0424419Y0370227D01*
X0424511Y0370247D01*
X0424596Y0370260D01*
X0424669Y0370266D01*
X0424721Y0370273D01*
X0424773D01*
X0424898Y0370266D01*
D02*
G37*
G36*
X0417492Y0366908D02*
X0416934D01*
Y0370201D01*
X0417492D01*
Y0366908D01*
D02*
G37*
G36*
X0408865Y0370266D02*
X0408970Y0370260D01*
X0409174Y0370214D01*
X0409351Y0370155D01*
X0409430Y0370122D01*
X0409502Y0370089D01*
X0409567Y0370056D01*
X0409620Y0370023D01*
X0409672Y0369991D01*
X0409712Y0369965D01*
X0409745Y0369938D01*
X0409771Y0369919D01*
X0409784Y0369912D01*
X0409790Y0369905D01*
X0409882Y0369820D01*
X0409954Y0369722D01*
X0410027Y0369617D01*
X0410079Y0369512D01*
X0410132Y0369400D01*
X0410171Y0369282D01*
X0410204Y0369171D01*
X0410230Y0369066D01*
X0410256Y0368961D01*
X0410269Y0368869D01*
X0410282Y0368777D01*
X0410289Y0368705D01*
Y0368639D01*
X0410295Y0368593D01*
Y0368567D01*
Y0368554D01*
X0410289Y0368403D01*
X0410276Y0368259D01*
X0410256Y0368128D01*
X0410230Y0368003D01*
X0410197Y0367892D01*
X0410164Y0367787D01*
X0410125Y0367688D01*
X0410086Y0367603D01*
X0410046Y0367524D01*
X0410007Y0367459D01*
X0409974Y0367406D01*
X0409941Y0367360D01*
X0409915Y0367321D01*
X0409895Y0367295D01*
X0409882Y0367281D01*
X0409876Y0367275D01*
X0409790Y0367196D01*
X0409705Y0367130D01*
X0409613Y0367072D01*
X0409521Y0367019D01*
X0409430Y0366980D01*
X0409331Y0366940D01*
X0409154Y0366888D01*
X0409075Y0366875D01*
X0408997Y0366862D01*
X0408931Y0366848D01*
X0408872Y0366842D01*
X0408819Y0366835D01*
X0408754D01*
X0408597Y0366842D01*
X0408452Y0366868D01*
X0408314Y0366901D01*
X0408203Y0366934D01*
X0408105Y0366973D01*
X0408065Y0366986D01*
X0408032Y0366999D01*
X0408000Y0367013D01*
X0407980Y0367026D01*
X0407973Y0367032D01*
X0407967D01*
X0407835Y0367117D01*
X0407724Y0367209D01*
X0407626Y0367301D01*
X0407547Y0367393D01*
X0407488Y0367472D01*
X0407442Y0367537D01*
X0407429Y0367564D01*
X0407416Y0367583D01*
X0407409Y0367590D01*
Y0367596D01*
X0407343Y0367747D01*
X0407298Y0367911D01*
X0407258Y0368075D01*
X0407238Y0368239D01*
X0407225Y0368311D01*
Y0368377D01*
X0407219Y0368443D01*
X0407212Y0368495D01*
Y0368541D01*
Y0368574D01*
Y0368593D01*
Y0368600D01*
X0407219Y0368744D01*
X0407232Y0368876D01*
X0407252Y0369000D01*
X0407278Y0369118D01*
X0407311Y0369230D01*
X0407350Y0369328D01*
X0407389Y0369426D01*
X0407429Y0369505D01*
X0407468Y0369577D01*
X0407508Y0369643D01*
X0407547Y0369702D01*
X0407580Y0369748D01*
X0407606Y0369781D01*
X0407626Y0369807D01*
X0407639Y0369820D01*
X0407645Y0369827D01*
X0407730Y0369905D01*
X0407816Y0369971D01*
X0407908Y0370037D01*
X0408000Y0370082D01*
X0408091Y0370128D01*
X0408183Y0370161D01*
X0408360Y0370220D01*
X0408446Y0370233D01*
X0408518Y0370247D01*
X0408583Y0370260D01*
X0408642Y0370266D01*
X0408688Y0370273D01*
X0408754D01*
X0408865Y0370266D01*
D02*
G37*
G36*
X0431261Y0366750D02*
Y0366671D01*
X0431268Y0366599D01*
Y0366527D01*
X0431274Y0366468D01*
X0431281Y0366422D01*
X0431287Y0366370D01*
X0431301Y0366297D01*
X0431320Y0366245D01*
X0431333Y0366212D01*
X0431340Y0366193D01*
X0431347Y0366186D01*
X0431379Y0366146D01*
X0431425Y0366120D01*
X0431465Y0366094D01*
X0431504Y0366081D01*
X0431543Y0366074D01*
X0431576Y0366068D01*
X0431642D01*
X0431681Y0366074D01*
X0431766Y0366094D01*
X0431799Y0366101D01*
X0431832Y0366107D01*
X0431852Y0366114D01*
X0431858D01*
X0431963Y0365641D01*
X0431806Y0365602D01*
X0431734Y0365589D01*
X0431668Y0365582D01*
X0431609D01*
X0431570Y0365576D01*
X0431530D01*
X0431445Y0365582D01*
X0431366Y0365589D01*
X0431228Y0365628D01*
X0431110Y0365674D01*
X0431018Y0365733D01*
X0430953Y0365792D01*
X0430900Y0365845D01*
X0430868Y0365878D01*
X0430861Y0365884D01*
Y0365891D01*
X0430835Y0365937D01*
X0430809Y0365996D01*
X0430769Y0366120D01*
X0430743Y0366265D01*
X0430723Y0366402D01*
X0430710Y0366534D01*
Y0366586D01*
X0430704Y0366638D01*
Y0366678D01*
Y0366711D01*
Y0366730D01*
Y0366737D01*
Y0370201D01*
X0431261D01*
Y0366750D01*
D02*
G37*
G36*
X0406563Y0366750D02*
Y0366671D01*
X0406569Y0366599D01*
Y0366527D01*
X0406576Y0366468D01*
X0406582Y0366422D01*
X0406589Y0366370D01*
X0406602Y0366297D01*
X0406622Y0366245D01*
X0406635Y0366212D01*
X0406642Y0366193D01*
X0406648Y0366186D01*
X0406681Y0366146D01*
X0406727Y0366120D01*
X0406766Y0366094D01*
X0406806Y0366081D01*
X0406845Y0366074D01*
X0406878Y0366068D01*
X0406943D01*
X0406983Y0366074D01*
X0407068Y0366094D01*
X0407101Y0366101D01*
X0407134Y0366107D01*
X0407153Y0366114D01*
X0407160D01*
X0407265Y0365641D01*
X0407107Y0365602D01*
X0407035Y0365589D01*
X0406970Y0365582D01*
X0406911D01*
X0406871Y0365576D01*
X0406832D01*
X0406746Y0365582D01*
X0406668Y0365589D01*
X0406530Y0365628D01*
X0406412Y0365674D01*
X0406320Y0365733D01*
X0406255Y0365792D01*
X0406202Y0365845D01*
X0406169Y0365878D01*
X0406163Y0365884D01*
Y0365891D01*
X0406137Y0365937D01*
X0406110Y0365996D01*
X0406071Y0366120D01*
X0406045Y0366265D01*
X0406025Y0366402D01*
X0406012Y0366534D01*
Y0366586D01*
X0406005Y0366638D01*
Y0366678D01*
Y0366711D01*
Y0366730D01*
Y0366737D01*
Y0370201D01*
X0406563D01*
Y0366750D01*
D02*
G37*
%LPC*%
G36*
X0367589Y0369755D02*
X0367484D01*
X0367418Y0369741D01*
X0367300Y0369709D01*
X0367195Y0369663D01*
X0367103Y0369617D01*
X0367031Y0369564D01*
X0366979Y0369518D01*
X0366946Y0369486D01*
X0366933Y0369479D01*
Y0369473D01*
X0366848Y0369361D01*
X0366782Y0369236D01*
X0366736Y0369105D01*
X0366710Y0368981D01*
X0366690Y0368876D01*
X0366684Y0368830D01*
Y0368784D01*
X0366677Y0368751D01*
Y0368725D01*
Y0368711D01*
Y0368705D01*
X0366690Y0368534D01*
X0366716Y0368384D01*
X0366756Y0368259D01*
X0366802Y0368154D01*
X0366854Y0368069D01*
X0366894Y0368010D01*
X0366920Y0367970D01*
X0366933Y0367957D01*
X0367031Y0367865D01*
X0367136Y0367800D01*
X0367241Y0367754D01*
X0367346Y0367721D01*
X0367431Y0367701D01*
X0367504Y0367695D01*
X0367530Y0367688D01*
X0367569D01*
X0367707Y0367701D01*
X0367832Y0367727D01*
X0367943Y0367773D01*
X0368041Y0367826D01*
X0368114Y0367872D01*
X0368173Y0367918D01*
X0368205Y0367944D01*
X0368219Y0367957D01*
X0368304Y0368062D01*
X0368370Y0368180D01*
X0368409Y0368298D01*
X0368442Y0368410D01*
X0368461Y0368508D01*
X0368468Y0368548D01*
Y0368587D01*
X0368474Y0368620D01*
Y0368639D01*
Y0368653D01*
Y0368659D01*
X0368461Y0368830D01*
X0368435Y0368987D01*
X0368389Y0369125D01*
X0368337Y0369236D01*
X0368291Y0369328D01*
X0368245Y0369394D01*
X0368232Y0369413D01*
X0368219Y0369433D01*
X0368205Y0369440D01*
Y0369446D01*
X0368153Y0369499D01*
X0368101Y0369551D01*
X0367989Y0369623D01*
X0367878Y0369682D01*
X0367773Y0369715D01*
X0367687Y0369741D01*
X0367615Y0369748D01*
X0367589Y0369755D01*
D02*
G37*
G36*
X0379961D02*
X0379922D01*
X0379850Y0369748D01*
X0379777Y0369741D01*
X0379712Y0369722D01*
X0379653Y0369695D01*
X0379541Y0369637D01*
X0379443Y0369571D01*
X0379371Y0369499D01*
X0379312Y0369440D01*
X0379292Y0369413D01*
X0379279Y0369394D01*
X0379266Y0369387D01*
Y0369381D01*
X0379220Y0369302D01*
X0379180Y0369210D01*
X0379141Y0369105D01*
X0379115Y0368994D01*
X0379088Y0368876D01*
X0379069Y0368751D01*
X0379036Y0368502D01*
X0379023Y0368377D01*
X0379016Y0368265D01*
X0379010Y0368161D01*
Y0368075D01*
X0379003Y0367997D01*
Y0367937D01*
Y0367905D01*
Y0367898D01*
Y0367892D01*
Y0367688D01*
X0379016Y0367505D01*
X0379029Y0367340D01*
X0379043Y0367183D01*
X0379062Y0367052D01*
X0379088Y0366927D01*
X0379115Y0366822D01*
X0379134Y0366724D01*
X0379161Y0366645D01*
X0379187Y0366580D01*
X0379207Y0366521D01*
X0379233Y0366475D01*
X0379246Y0366442D01*
X0379259Y0366422D01*
X0379272Y0366409D01*
Y0366402D01*
X0379325Y0366337D01*
X0379377Y0366284D01*
X0379430Y0366232D01*
X0379482Y0366193D01*
X0379594Y0366127D01*
X0379692Y0366081D01*
X0379784Y0366055D01*
X0379850Y0366042D01*
X0379876Y0366035D01*
X0379915D01*
X0379987Y0366042D01*
X0380053Y0366048D01*
X0380177Y0366094D01*
X0380289Y0366153D01*
X0380387Y0366219D01*
X0380460Y0366284D01*
X0380519Y0366343D01*
X0380551Y0366389D01*
X0380564Y0366396D01*
Y0366402D01*
X0380610Y0366481D01*
X0380650Y0366573D01*
X0380689Y0366678D01*
X0380715Y0366789D01*
X0380742Y0366908D01*
X0380761Y0367032D01*
X0380794Y0367288D01*
X0380807Y0367406D01*
X0380814Y0367518D01*
X0380820Y0367623D01*
Y0367708D01*
X0380827Y0367787D01*
Y0367846D01*
Y0367878D01*
Y0367892D01*
X0380820Y0368095D01*
X0380814Y0368279D01*
X0380801Y0368449D01*
X0380781Y0368607D01*
X0380761Y0368744D01*
X0380735Y0368869D01*
X0380709Y0368981D01*
X0380683Y0369079D01*
X0380656Y0369164D01*
X0380637Y0369236D01*
X0380610Y0369295D01*
X0380591Y0369348D01*
X0380571Y0369381D01*
X0380558Y0369407D01*
X0380545Y0369420D01*
Y0369426D01*
X0380499Y0369486D01*
X0380453Y0369538D01*
X0380400Y0369577D01*
X0380348Y0369617D01*
X0380243Y0369676D01*
X0380145Y0369715D01*
X0380059Y0369735D01*
X0379987Y0369748D01*
X0379961Y0369755D01*
D02*
G37*
G36*
X0371138D02*
X0371098D01*
X0371026Y0369748D01*
X0370954Y0369741D01*
X0370888Y0369722D01*
X0370830Y0369695D01*
X0370718Y0369637D01*
X0370620Y0369571D01*
X0370547Y0369499D01*
X0370488Y0369440D01*
X0370469Y0369413D01*
X0370456Y0369394D01*
X0370442Y0369387D01*
Y0369381D01*
X0370396Y0369302D01*
X0370357Y0369210D01*
X0370318Y0369105D01*
X0370292Y0368994D01*
X0370265Y0368876D01*
X0370246Y0368751D01*
X0370213Y0368502D01*
X0370200Y0368377D01*
X0370193Y0368265D01*
X0370187Y0368161D01*
Y0368075D01*
X0370180Y0367997D01*
Y0367937D01*
Y0367905D01*
Y0367898D01*
Y0367892D01*
Y0367688D01*
X0370193Y0367505D01*
X0370206Y0367340D01*
X0370219Y0367183D01*
X0370239Y0367052D01*
X0370265Y0366927D01*
X0370292Y0366822D01*
X0370311Y0366724D01*
X0370338Y0366645D01*
X0370364Y0366580D01*
X0370383Y0366521D01*
X0370410Y0366475D01*
X0370423Y0366442D01*
X0370436Y0366422D01*
X0370449Y0366409D01*
Y0366402D01*
X0370501Y0366337D01*
X0370554Y0366284D01*
X0370606Y0366232D01*
X0370659Y0366193D01*
X0370770Y0366127D01*
X0370869Y0366081D01*
X0370961Y0366055D01*
X0371026Y0366042D01*
X0371053Y0366035D01*
X0371092D01*
X0371164Y0366042D01*
X0371230Y0366048D01*
X0371354Y0366094D01*
X0371466Y0366153D01*
X0371564Y0366219D01*
X0371636Y0366284D01*
X0371695Y0366343D01*
X0371728Y0366389D01*
X0371741Y0366396D01*
Y0366402D01*
X0371787Y0366481D01*
X0371827Y0366573D01*
X0371866Y0366678D01*
X0371892Y0366789D01*
X0371918Y0366908D01*
X0371938Y0367032D01*
X0371971Y0367288D01*
X0371984Y0367406D01*
X0371991Y0367518D01*
X0371997Y0367623D01*
Y0367708D01*
X0372004Y0367787D01*
Y0367846D01*
Y0367878D01*
Y0367892D01*
X0371997Y0368095D01*
X0371991Y0368279D01*
X0371977Y0368449D01*
X0371958Y0368607D01*
X0371938Y0368744D01*
X0371912Y0368869D01*
X0371886Y0368981D01*
X0371859Y0369079D01*
X0371833Y0369164D01*
X0371814Y0369236D01*
X0371787Y0369295D01*
X0371768Y0369348D01*
X0371748Y0369381D01*
X0371735Y0369407D01*
X0371722Y0369420D01*
Y0369426D01*
X0371676Y0369486D01*
X0371630Y0369538D01*
X0371577Y0369577D01*
X0371525Y0369617D01*
X0371420Y0369676D01*
X0371322Y0369715D01*
X0371236Y0369735D01*
X0371164Y0369748D01*
X0371138Y0369755D01*
D02*
G37*
G36*
X0358785D02*
X0358746D01*
X0358674Y0369748D01*
X0358602Y0369741D01*
X0358536Y0369722D01*
X0358477Y0369695D01*
X0358366Y0369637D01*
X0358267Y0369571D01*
X0358195Y0369499D01*
X0358136Y0369440D01*
X0358116Y0369413D01*
X0358103Y0369394D01*
X0358090Y0369387D01*
Y0369381D01*
X0358044Y0369302D01*
X0358005Y0369210D01*
X0357965Y0369105D01*
X0357939Y0368994D01*
X0357913Y0368876D01*
X0357893Y0368751D01*
X0357860Y0368502D01*
X0357847Y0368377D01*
X0357841Y0368265D01*
X0357834Y0368161D01*
Y0368075D01*
X0357828Y0367997D01*
Y0367937D01*
Y0367905D01*
Y0367898D01*
Y0367892D01*
Y0367688D01*
X0357841Y0367505D01*
X0357854Y0367340D01*
X0357867Y0367183D01*
X0357887Y0367052D01*
X0357913Y0366927D01*
X0357939Y0366822D01*
X0357959Y0366724D01*
X0357985Y0366645D01*
X0358011Y0366580D01*
X0358031Y0366521D01*
X0358057Y0366475D01*
X0358070Y0366442D01*
X0358083Y0366422D01*
X0358097Y0366409D01*
Y0366402D01*
X0358149Y0366337D01*
X0358202Y0366284D01*
X0358254Y0366232D01*
X0358306Y0366193D01*
X0358418Y0366127D01*
X0358516Y0366081D01*
X0358608Y0366055D01*
X0358674Y0366042D01*
X0358700Y0366035D01*
X0358739D01*
X0358812Y0366042D01*
X0358877Y0366048D01*
X0359002Y0366094D01*
X0359113Y0366153D01*
X0359212Y0366219D01*
X0359284Y0366284D01*
X0359343Y0366343D01*
X0359376Y0366389D01*
X0359389Y0366396D01*
Y0366402D01*
X0359435Y0366481D01*
X0359474Y0366573D01*
X0359513Y0366678D01*
X0359540Y0366789D01*
X0359566Y0366908D01*
X0359586Y0367032D01*
X0359618Y0367288D01*
X0359632Y0367406D01*
X0359638Y0367518D01*
X0359645Y0367623D01*
Y0367708D01*
X0359651Y0367787D01*
Y0367846D01*
Y0367878D01*
Y0367892D01*
X0359645Y0368095D01*
X0359638Y0368279D01*
X0359625Y0368449D01*
X0359605Y0368607D01*
X0359586Y0368744D01*
X0359559Y0368869D01*
X0359533Y0368981D01*
X0359507Y0369079D01*
X0359481Y0369164D01*
X0359461Y0369236D01*
X0359435Y0369295D01*
X0359415Y0369348D01*
X0359395Y0369381D01*
X0359382Y0369407D01*
X0359369Y0369420D01*
Y0369426D01*
X0359323Y0369486D01*
X0359277Y0369538D01*
X0359225Y0369577D01*
X0359172Y0369617D01*
X0359067Y0369676D01*
X0358969Y0369715D01*
X0358884Y0369735D01*
X0358812Y0369748D01*
X0358785Y0369755D01*
D02*
G37*
G36*
X0351727Y0369755D02*
X0351674D01*
X0351563Y0369748D01*
X0351458Y0369722D01*
X0351373Y0369689D01*
X0351294Y0369650D01*
X0351235Y0369610D01*
X0351189Y0369577D01*
X0351156Y0369551D01*
X0351150Y0369545D01*
X0351077Y0369459D01*
X0351025Y0369374D01*
X0350986Y0369289D01*
X0350959Y0369210D01*
X0350946Y0369138D01*
X0350933Y0369079D01*
Y0369040D01*
Y0369033D01*
Y0369026D01*
X0350940Y0368921D01*
X0350966Y0368823D01*
X0350999Y0368738D01*
X0351038Y0368666D01*
X0351077Y0368606D01*
X0351110Y0368567D01*
X0351136Y0368534D01*
X0351143Y0368528D01*
X0351222Y0368462D01*
X0351313Y0368410D01*
X0351399Y0368377D01*
X0351484Y0368351D01*
X0351563Y0368338D01*
X0351622Y0368331D01*
X0351661Y0368324D01*
X0351674D01*
X0351792Y0368331D01*
X0351897Y0368357D01*
X0351989Y0368390D01*
X0352068Y0368429D01*
X0352127Y0368462D01*
X0352173Y0368495D01*
X0352206Y0368521D01*
X0352212Y0368528D01*
X0352278Y0368606D01*
X0352330Y0368698D01*
X0352363Y0368784D01*
X0352389Y0368869D01*
X0352402Y0368941D01*
X0352409Y0369000D01*
X0352416Y0369040D01*
Y0369046D01*
Y0369053D01*
X0352409Y0369158D01*
X0352383Y0369249D01*
X0352350Y0369335D01*
X0352311Y0369407D01*
X0352278Y0369466D01*
X0352245Y0369512D01*
X0352219Y0369538D01*
X0352212Y0369545D01*
X0352127Y0369617D01*
X0352042Y0369669D01*
X0351950Y0369702D01*
X0351865Y0369728D01*
X0351786Y0369741D01*
X0351727Y0369755D01*
D02*
G37*
G36*
X0351733Y0367872D02*
X0351694D01*
X0351550Y0367859D01*
X0351418Y0367832D01*
X0351300Y0367787D01*
X0351202Y0367741D01*
X0351123Y0367688D01*
X0351064Y0367642D01*
X0351031Y0367616D01*
X0351018Y0367603D01*
X0350926Y0367498D01*
X0350861Y0367386D01*
X0350815Y0367275D01*
X0350782Y0367177D01*
X0350762Y0367078D01*
X0350756Y0367006D01*
X0350749Y0366980D01*
Y0366960D01*
Y0366947D01*
Y0366940D01*
X0350762Y0366803D01*
X0350789Y0366671D01*
X0350835Y0366560D01*
X0350881Y0366468D01*
X0350926Y0366396D01*
X0350972Y0366337D01*
X0350999Y0366304D01*
X0351012Y0366291D01*
X0351117Y0366206D01*
X0351222Y0366140D01*
X0351333Y0366101D01*
X0351438Y0366068D01*
X0351530Y0366048D01*
X0351609Y0366042D01*
X0351635Y0366035D01*
X0351674D01*
X0351766Y0366042D01*
X0351858Y0366055D01*
X0351943Y0366074D01*
X0352015Y0366094D01*
X0352074Y0366114D01*
X0352120Y0366133D01*
X0352147Y0366146D01*
X0352160Y0366153D01*
X0352238Y0366206D01*
X0352304Y0366258D01*
X0352363Y0366317D01*
X0352409Y0366376D01*
X0352448Y0366422D01*
X0352475Y0366461D01*
X0352488Y0366494D01*
X0352494Y0366501D01*
X0352527Y0366586D01*
X0352553Y0366665D01*
X0352573Y0366743D01*
X0352586Y0366816D01*
X0352593Y0366875D01*
X0352599Y0366921D01*
Y0366947D01*
Y0366960D01*
X0352586Y0367098D01*
X0352560Y0367222D01*
X0352520Y0367334D01*
X0352468Y0367432D01*
X0352422Y0367505D01*
X0352383Y0367564D01*
X0352357Y0367596D01*
X0352343Y0367609D01*
X0352245Y0367695D01*
X0352133Y0367760D01*
X0352028Y0367806D01*
X0351924Y0367839D01*
X0351832Y0367859D01*
X0351760Y0367865D01*
X0351733Y0367872D01*
D02*
G37*
G36*
X0427745Y0368561D02*
X0427739D01*
X0427745Y0368351D01*
X0427752Y0368219D01*
X0427758Y0368108D01*
X0427771Y0368016D01*
X0427791Y0367937D01*
X0427811Y0367878D01*
X0427824Y0367832D01*
X0427830Y0367806D01*
X0427837Y0367800D01*
X0427889Y0367714D01*
X0427942Y0367636D01*
X0428008Y0367570D01*
X0428067Y0367518D01*
X0428119Y0367472D01*
X0428165Y0367439D01*
X0428191Y0367419D01*
X0428204Y0367413D01*
X0428303Y0367367D01*
X0428401Y0367334D01*
X0428493Y0367308D01*
X0428585Y0367295D01*
X0428657Y0367281D01*
X0428722Y0367275D01*
X0428775D01*
X0428893Y0367281D01*
X0428992Y0367295D01*
X0429077Y0367321D01*
X0429149Y0367347D01*
X0429201Y0367373D01*
X0429241Y0367400D01*
X0429267Y0367413D01*
X0429274Y0367419D01*
X0429326Y0367478D01*
X0429365Y0367544D01*
X0429398Y0367603D01*
X0429418Y0367662D01*
X0429431Y0367714D01*
X0429438Y0367754D01*
Y0367787D01*
Y0367793D01*
X0429431Y0367846D01*
X0429424Y0367898D01*
X0429411Y0367937D01*
X0429398Y0367977D01*
X0429385Y0368010D01*
X0429379Y0368036D01*
X0429365Y0368049D01*
Y0368056D01*
X0429300Y0368134D01*
X0429221Y0368187D01*
X0429195Y0368206D01*
X0429169Y0368219D01*
X0429149Y0368233D01*
X0429142D01*
X0429077Y0368259D01*
X0429005Y0368279D01*
X0428926Y0368298D01*
X0428847Y0368311D01*
X0428775Y0368324D01*
X0428709Y0368338D01*
X0428670Y0368344D01*
X0428657D01*
X0428545Y0368364D01*
X0428441Y0368377D01*
X0428349Y0368397D01*
X0428257Y0368416D01*
X0428171Y0368436D01*
X0428099Y0368456D01*
X0428027Y0368469D01*
X0427968Y0368489D01*
X0427916Y0368502D01*
X0427870Y0368515D01*
X0427830Y0368528D01*
X0427798Y0368541D01*
X0427771Y0368548D01*
X0427752Y0368554D01*
X0427745Y0368561D01*
D02*
G37*
G36*
X0420686D02*
X0420680D01*
X0420686Y0368351D01*
X0420693Y0368219D01*
X0420700Y0368108D01*
X0420713Y0368016D01*
X0420732Y0367937D01*
X0420752Y0367878D01*
X0420765Y0367832D01*
X0420772Y0367806D01*
X0420778Y0367800D01*
X0420831Y0367714D01*
X0420883Y0367636D01*
X0420949Y0367570D01*
X0421008Y0367518D01*
X0421061Y0367472D01*
X0421106Y0367439D01*
X0421133Y0367419D01*
X0421146Y0367413D01*
X0421244Y0367367D01*
X0421343Y0367334D01*
X0421434Y0367308D01*
X0421526Y0367295D01*
X0421598Y0367281D01*
X0421664Y0367275D01*
X0421716D01*
X0421835Y0367281D01*
X0421933Y0367295D01*
X0422018Y0367321D01*
X0422090Y0367347D01*
X0422143Y0367373D01*
X0422182Y0367400D01*
X0422208Y0367413D01*
X0422215Y0367419D01*
X0422267Y0367478D01*
X0422307Y0367544D01*
X0422340Y0367603D01*
X0422359Y0367662D01*
X0422372Y0367714D01*
X0422379Y0367754D01*
Y0367787D01*
Y0367793D01*
X0422372Y0367846D01*
X0422366Y0367898D01*
X0422353Y0367937D01*
X0422340Y0367977D01*
X0422327Y0368010D01*
X0422320Y0368036D01*
X0422307Y0368049D01*
Y0368056D01*
X0422241Y0368134D01*
X0422163Y0368187D01*
X0422136Y0368206D01*
X0422110Y0368219D01*
X0422090Y0368233D01*
X0422084D01*
X0422018Y0368259D01*
X0421946Y0368279D01*
X0421867Y0368298D01*
X0421789Y0368311D01*
X0421716Y0368324D01*
X0421651Y0368338D01*
X0421611Y0368344D01*
X0421598D01*
X0421487Y0368364D01*
X0421382Y0368377D01*
X0421290Y0368397D01*
X0421198Y0368416D01*
X0421113Y0368436D01*
X0421041Y0368456D01*
X0420969Y0368469D01*
X0420910Y0368489D01*
X0420857Y0368502D01*
X0420811Y0368515D01*
X0420772Y0368528D01*
X0420739Y0368541D01*
X0420713Y0368548D01*
X0420693Y0368554D01*
X0420686Y0368561D01*
D02*
G37*
G36*
X0403047Y0368561D02*
X0403040D01*
X0403047Y0368351D01*
X0403053Y0368219D01*
X0403060Y0368108D01*
X0403073Y0368016D01*
X0403093Y0367937D01*
X0403112Y0367878D01*
X0403125Y0367832D01*
X0403132Y0367806D01*
X0403138Y0367800D01*
X0403191Y0367714D01*
X0403243Y0367636D01*
X0403309Y0367570D01*
X0403368Y0367518D01*
X0403421Y0367472D01*
X0403467Y0367439D01*
X0403493Y0367419D01*
X0403506Y0367413D01*
X0403604Y0367367D01*
X0403703Y0367334D01*
X0403794Y0367308D01*
X0403886Y0367295D01*
X0403959Y0367281D01*
X0404024Y0367275D01*
X0404077D01*
X0404195Y0367281D01*
X0404293Y0367295D01*
X0404378Y0367321D01*
X0404451Y0367347D01*
X0404503Y0367373D01*
X0404542Y0367400D01*
X0404569Y0367413D01*
X0404575Y0367419D01*
X0404628Y0367478D01*
X0404667Y0367544D01*
X0404700Y0367603D01*
X0404719Y0367662D01*
X0404733Y0367714D01*
X0404739Y0367754D01*
Y0367787D01*
Y0367793D01*
X0404733Y0367846D01*
X0404726Y0367898D01*
X0404713Y0367937D01*
X0404700Y0367977D01*
X0404687Y0368010D01*
X0404680Y0368036D01*
X0404667Y0368049D01*
Y0368056D01*
X0404601Y0368134D01*
X0404523Y0368187D01*
X0404496Y0368206D01*
X0404470Y0368219D01*
X0404451Y0368233D01*
X0404444D01*
X0404378Y0368259D01*
X0404306Y0368279D01*
X0404227Y0368298D01*
X0404149Y0368311D01*
X0404077Y0368324D01*
X0404011Y0368338D01*
X0403972Y0368344D01*
X0403959D01*
X0403847Y0368364D01*
X0403742Y0368377D01*
X0403650Y0368397D01*
X0403558Y0368416D01*
X0403473Y0368436D01*
X0403401Y0368456D01*
X0403329Y0368469D01*
X0403270Y0368489D01*
X0403217Y0368502D01*
X0403171Y0368515D01*
X0403132Y0368528D01*
X0403099Y0368541D01*
X0403073Y0368548D01*
X0403053Y0368554D01*
X0403047Y0368561D01*
D02*
G37*
G36*
X0408793Y0369814D02*
X0408754D01*
X0408675Y0369807D01*
X0408603Y0369800D01*
X0408472Y0369768D01*
X0408354Y0369715D01*
X0408255Y0369656D01*
X0408177Y0369597D01*
X0408118Y0369551D01*
X0408078Y0369512D01*
X0408065Y0369505D01*
Y0369499D01*
X0408013Y0369440D01*
X0407973Y0369368D01*
X0407901Y0369223D01*
X0407849Y0369066D01*
X0407816Y0368921D01*
X0407796Y0368784D01*
X0407790Y0368725D01*
Y0368672D01*
X0407783Y0368633D01*
Y0368600D01*
Y0368580D01*
Y0368574D01*
Y0368456D01*
X0407796Y0368344D01*
X0407809Y0368246D01*
X0407829Y0368147D01*
X0407849Y0368062D01*
X0407875Y0367983D01*
X0407895Y0367911D01*
X0407921Y0367846D01*
X0407947Y0367793D01*
X0407973Y0367741D01*
X0408000Y0367701D01*
X0408019Y0367669D01*
X0408039Y0367642D01*
X0408052Y0367622D01*
X0408059Y0367616D01*
X0408065Y0367609D01*
X0408118Y0367557D01*
X0408177Y0367505D01*
X0408288Y0367426D01*
X0408406Y0367373D01*
X0408511Y0367334D01*
X0408610Y0367314D01*
X0408682Y0367301D01*
X0408715Y0367295D01*
X0408754D01*
X0408833Y0367301D01*
X0408905Y0367308D01*
X0409043Y0367340D01*
X0409161Y0367393D01*
X0409259Y0367452D01*
X0409338Y0367505D01*
X0409397Y0367557D01*
X0409436Y0367590D01*
X0409443Y0367603D01*
X0409449D01*
X0409495Y0367669D01*
X0409541Y0367734D01*
X0409607Y0367885D01*
X0409659Y0368042D01*
X0409692Y0368200D01*
X0409712Y0368338D01*
X0409718Y0368397D01*
Y0368449D01*
X0409725Y0368495D01*
Y0368528D01*
Y0368548D01*
Y0368554D01*
X0409718Y0368666D01*
X0409712Y0368777D01*
X0409698Y0368876D01*
X0409679Y0368967D01*
X0409659Y0369053D01*
X0409640Y0369131D01*
X0409613Y0369197D01*
X0409587Y0369263D01*
X0409561Y0369315D01*
X0409535Y0369368D01*
X0409515Y0369407D01*
X0409495Y0369440D01*
X0409476Y0369466D01*
X0409462Y0369486D01*
X0409449Y0369492D01*
Y0369499D01*
X0409397Y0369551D01*
X0409338Y0369604D01*
X0409226Y0369682D01*
X0409108Y0369735D01*
X0408997Y0369774D01*
X0408898Y0369800D01*
X0408826Y0369807D01*
X0408793Y0369814D01*
D02*
G37*
%LPD*%
M02*
