G04*
G04 #@! TF.GenerationSoftware,Altium Limited,Altium Designer,18.1.7 (191)*
G04*
G04 Layer_Color=65535*
%FSAX25Y25*%
%MOIN*%
G70*
G01*
G75*
%ADD10C,0.00787*%
%ADD11C,0.01968*%
%ADD12C,0.03150*%
%ADD13C,0.01181*%
G36*
X0406299Y0296973D02*
X0410630Y0295005D01*
X0414567Y0292249D01*
X0417323Y0287918D01*
X0418898Y0283588D01*
Y0279651D01*
X0418806Y0279647D01*
X0418019Y0277288D01*
X0413689Y0268233D01*
X0409555Y0261934D01*
X0405027Y0256422D01*
X0397547Y0249729D01*
X0391708Y0245793D01*
X0391687Y0247769D01*
X0391666Y0245793D01*
X0385827Y0249729D01*
X0378346Y0256422D01*
X0373819Y0261934D01*
X0369685Y0268233D01*
X0365354Y0277288D01*
X0364567Y0279651D01*
Y0283588D01*
X0366142Y0287918D01*
X0368898Y0292249D01*
X0372835Y0295005D01*
X0377165Y0296973D01*
X0380315Y0297367D01*
X0384252Y0296580D01*
X0388189Y0295005D01*
X0390551Y0293037D01*
X0391732Y0291814D01*
X0392913Y0293037D01*
X0395276Y0295005D01*
X0399213Y0296580D01*
X0403150Y0297367D01*
X0406299Y0296973D01*
D02*
G37*
%LPC*%
G36*
X0405118Y0293307D02*
X0402362Y0293307D01*
X0399606Y0293037D01*
X0396457Y0291462D01*
X0394094Y0289100D01*
X0392520Y0286344D01*
X0391757Y0282532D01*
X0391757Y0282283D01*
X0391732Y0282407D01*
X0391708Y0282283D01*
X0391707Y0282532D01*
X0390945Y0286344D01*
X0389370Y0289100D01*
X0387008Y0291462D01*
X0383858Y0293037D01*
X0381102Y0293307D01*
X0378346Y0293307D01*
X0375197Y0292249D01*
X0372441Y0290674D01*
X0370472Y0288312D01*
X0369291Y0286344D01*
X0368110Y0282800D01*
Y0279528D01*
X0369291Y0275714D01*
X0371457Y0271777D01*
X0374803Y0265871D01*
X0379134Y0260359D01*
X0383858Y0255635D01*
X0388976Y0251698D01*
X0391687Y0249759D01*
X0394397Y0251698D01*
X0399515Y0255635D01*
X0404240Y0260359D01*
X0408570Y0265871D01*
X0411917Y0271777D01*
X0414082Y0275714D01*
X0415263Y0279528D01*
X0415354Y0279541D01*
Y0282800D01*
X0414173Y0286344D01*
X0412992Y0288312D01*
X0411024Y0290674D01*
X0408268Y0292249D01*
X0405118Y0293307D01*
D02*
G37*
%LPD*%
G36*
X0398721Y0275615D02*
Y0273844D01*
X0398228Y0273351D01*
Y0273647D01*
X0396752Y0275123D01*
X0394488D01*
X0392717Y0273351D01*
X0390354D01*
X0388681Y0275025D01*
X0386516D01*
X0385531Y0274040D01*
X0384449D01*
X0384350Y0274139D01*
X0384744Y0274631D01*
Y0275714D01*
X0388725Y0279695D01*
X0394641D01*
X0398721Y0275615D01*
D02*
G37*
G36*
X0394587Y0270103D02*
X0396752D01*
X0397736Y0271088D01*
X0398819D01*
X0398917Y0270989D01*
X0398524Y0270497D01*
Y0269414D01*
X0394543Y0265434D01*
X0388627D01*
X0384547Y0269513D01*
Y0271285D01*
X0385039Y0271777D01*
Y0271481D01*
X0386516Y0270005D01*
X0388779D01*
X0390551Y0271777D01*
X0392913D01*
X0394587Y0270103D01*
D02*
G37*
D10*
X0401600Y0272564D02*
G03*
X0401600Y0272564I-0009843J0000000D01*
G01*
X0398327D02*
G03*
X0398327Y0272564I-0002559J0000000D01*
G01*
X0390256D02*
G03*
X0390256Y0272564I-0002559J0000000D01*
G01*
D11*
X0392662D02*
G03*
X0392662Y0272564I-0000858J0000000D01*
G01*
D12*
X0399853D02*
G03*
X0399853Y0272564I-0008096J0000000D01*
G01*
D13*
X0391708Y0249744D02*
G03*
X0415354Y0279528I-0030487J0048484D01*
G01*
X0368110D02*
G03*
X0391757Y0249744I0054134J0018701D01*
G01*
X0415354Y0279528D02*
G03*
X0403543Y0293307I-0012795J0000984D01*
G01*
D02*
G03*
X0391757Y0282283I-0000381J-0011405D01*
G01*
D02*
G03*
X0379921Y0293307I-0011430J-0000406D01*
G01*
Y0293307D02*
G03*
X0368110Y0279528I0000984J-0012795D01*
G01*
X0403343Y0297411D02*
G03*
X0391768Y0291778I0000984J-0016732D01*
G01*
X0419091Y0279695D02*
G03*
X0403343Y0297411I-0016732J0000984D01*
G01*
X0391814Y0291820D02*
G03*
X0380315Y0297367I-0012483J-0011185D01*
G01*
D02*
G03*
X0364567Y0279651I0000984J-0016732D01*
G01*
X0391666Y0245793D02*
G03*
X0419225Y0279922I-0030512J0052830D01*
G01*
X0364567Y0279651D02*
G03*
X0391666Y0245793I0058070J0018704D01*
G01*
X0391708Y0276107D02*
X0391757Y0282283D01*
X0401968Y0361934D02*
X0411811Y0318233D01*
X0420866Y0361934D01*
X0424409Y0377682D01*
X0385039Y0361934D02*
X0420866D01*
X0385039D02*
X0399213Y0296580D01*
X0380315Y0361934D02*
X0385039D01*
X0380315Y0297761D02*
Y0361934D01*
X0364567Y0279651D02*
Y0362328D01*
X0419091Y0279695D02*
X0440551Y0377682D01*
X0342520D02*
X0440551D01*
X0342520Y0362328D02*
Y0377682D01*
Y0362328D02*
X0364567D01*
M02*
